<?xml version="1.0" encoding="UTF-8" standalone="no"?>
<svg
   xmlns:svg="http://www.w3.org/2000/svg"
   xmlns="http://www.w3.org/2000/svg"
   version="1.1"
   id="Capa_1"
   x="0px"
   y="0px"
   viewBox="0 0 73.21875 73.21875"
   xml:space="preserve"
   width="100"
   height="100">
	<defs id="defs59" />
<g
   id="g6"
   style="fill:#ffffff"
   transform="matrix(0.1953125,0,0,0.19633741,0,0.906173)">
	<g
   id="g4"
   style="fill:#ffffff">
		<path
   d="M 357.44,66.24 H 17.28 c -5.552,0.011 -10.761,2.69 -14,7.2 l 14.08,8.8 170.08,106.16 170,-106.16 14,-8.8 c -3.239,-4.51 -8.448,-7.189 -14,-7.2 z"
   id="path2"
   style="fill:#ffffff" />
	</g>
</g>
<g
   id="g12"
   style="fill:#ffffff"
   transform="matrix(0.1953125,0,0,0.19633741,0,0.906173)">
	<g
   id="g10"
   style="fill:#ffffff">
		<path
   d="m 358.88,289.12 -133.6,-105.52 -33.6,21.04 c -2.594,1.621 -5.886,1.621 -8.48,0 L 149.6,183.6 16,289.12 2.4,299.92 c 3.065,5.376 8.772,8.702 14.96,8.72 H 357.6 c 6.188,-0.018 11.894,-3.344 14.96,-8.72 z"
   id="path8"
   style="fill:#ffffff" />
	</g>
</g>
<g
   id="g18"
   style="fill:#ffffff"
   transform="matrix(0.1953125,0,0,0.19633741,0,0.906173)">
	<g
   id="g16"
   style="fill:#ffffff">
		<polygon
   points="16,268.8 135.12,174.56 16,100.16 0,90.24 0,281.44 "
   id="polygon14"
   style="fill:#ffffff" />
	</g>
</g>
<g
   id="g24"
   style="fill:#ffffff"
   transform="matrix(0.1953125,0,0,0.19633741,0,0.906173)">
	<g
   id="g22"
   style="fill:#ffffff">
		<polygon
   points="374.88,281.44 374.88,90.24 358.88,100.16 239.76,174.56 358.88,268.8 "
   id="polygon20"
   style="fill:#ffffff" />
	</g>
</g>
<g
   id="g26"
   transform="matrix(0.1953125,0,0,0.19633741,0,0.906173)">
</g>
<g
   id="g28"
   transform="matrix(0.1953125,0,0,0.19633741,0,0.906173)">
</g>
<g
   id="g30"
   transform="matrix(0.1953125,0,0,0.19633741,0,0.906173)">
</g>
<g
   id="g32"
   transform="matrix(0.1953125,0,0,0.19633741,0,0.906173)">
</g>
<g
   id="g34"
   transform="matrix(0.1953125,0,0,0.19633741,0,0.906173)">
</g>
<g
   id="g36"
   transform="matrix(0.1953125,0,0,0.19633741,0,0.906173)">
</g>
<g
   id="g38"
   transform="matrix(0.1953125,0,0,0.19633741,0,0.906173)">
</g>
<g
   id="g40"
   transform="matrix(0.1953125,0,0,0.19633741,0,0.906173)">
</g>
<g
   id="g42"
   transform="matrix(0.1953125,0,0,0.19633741,0,0.906173)">
</g>
<g
   id="g44"
   transform="matrix(0.1953125,0,0,0.19633741,0,0.906173)">
</g>
<g
   id="g46"
   transform="matrix(0.1953125,0,0,0.19633741,0,0.906173)">
</g>
<g
   id="g48"
   transform="matrix(0.1953125,0,0,0.19633741,0,0.906173)">
</g>
<g
   id="g50"
   transform="matrix(0.1953125,0,0,0.19633741,0,0.906173)">
</g>
<g
   id="g52"
   transform="matrix(0.1953125,0,0,0.19633741,0,0.906173)">
</g>
<g
   id="g54"
   transform="matrix(0.1953125,0,0,0.19633741,0,0.906173)">
</g>
</svg>