<svg
   xmlns="http://www.w3.org/2000/svg"
   version="1.1"
   id="svg2"
   x="0px"
   y="0px"
   width="50"
   height="50"
   viewBox="0 0 50 50"
   enable-background="new 0 0 1200 1200"
   xml:space="preserve">
<path
   id="path6686"
   d="m 32.493458,25.018539 c 0,3.97213 -3.361,7.19217 -7.507041,7.19217 -4.146,0 -7.507,-3.22004 -7.507,-7.19217 0,-3.97216 3.361,-7.19217 7.507,-7.19217 4.146041,-4e-5 7.507041,3.22005 7.507041,7.19217 z M 25,10.043369 c -4.292708,0.019 -8.74225,1.06409 -12.954333,3.06488 -3.127417,1.54675 -6.1752503,3.729 -8.820917,6.42254 -1.2994167,1.37496 -2.95679167,3.36588 -3.22475,5.49009 0.03166667,1.84004 2.0054167,4.1112 3.22475,5.49012 2.4809583,2.58775 5.4494167,4.70908 8.820917,6.42412 3.927958,1.9063 8.275666,3.00384 12.954333,3.06488 4.296792,-0.0193 8.745333,-1.07642 12.95275,-3.06488 3.127417,-1.54674 6.176792,-3.73058 8.8225,-6.42412 1.299375,-1.37496 2.95675,-3.36592 3.22475,-5.49012 -0.03167,-1.84005 -2.005417,-4.1113 -3.22475,-5.49017 -2.480958,-2.58775 -5.451,-4.70746 -8.8225,-6.42254 C 34.026833,11.203329 29.668417,10.113329 25,10.043369 Z m -0.0032,3.71867 c 6.504959,0 11.778125,5.04142 11.778125,11.26046 0,6.219 -5.273166,11.26042 -11.778125,11.26042 -6.504958,0 -11.778125,-5.04146 -11.778125,-11.26042 0,-6.21904 5.273167,-11.26046 11.778125,-11.26046 z"
   style="fill:#333333;stroke-width:0.04166667" />
</svg>