<svg
   xmlns="http://www.w3.org/2000/svg"
   id="svg2"
   version="1.1"
   height="50"
   width="50"
   viewBox="0 0 50 50">
  <defs
     id="defs32" />
     inkscape:current-layer="svg2" />
  <metadata
     id="metadata62">
  </metadata>
  <path
     id="path6596"
     d="m 27.905273,11.145599 c -0.953759,-0.1031 -1.922919,-0.1622 -2.905273,-0.1769 -4.292745,0.019 -8.742637,1.0632 -12.954707,3.0639 -3.1274122,1.5468 -6.1738963,3.7305 -8.8195901,6.424 -1.2993648,1.375 -2.95773411,3.3659 -3.2257029,5.4901 0.0316502,1.8401 2.0063869,4.1113 3.2257029,5.4901 2.4809571,2.5878 5.4480763,4.7088 8.8195901,6.424 0.114561,0.055 0.229561,0.1105 0.344844,0.1648 l -3.1280002,5.4625 4.2502192,2.5119 22.975645,-40.0014004 -4.091057,-2.5003 z m 9.701544,2.7283 -3.121954,5.4108 c 1.436222,1.8659 2.288819,4.1669 2.288819,6.662 0,6.219 -5.271777,11.261 -11.776729,11.261 -0.281231,0 -0.55376,-0.031 -0.830078,-0.049 l -2.066045,3.5766 c 0.952842,0.1021 1.916269,0.1764 2.89917,0.1892 4.296777,-0.02 8.744219,-1.0755 12.95166,-3.0639 3.127413,-1.5467 6.176944,-3.7305 8.822636,-6.424 1.299375,-1.3749 2.957716,-3.3658 3.225704,-5.4901 -0.03165,-1.84 -2.006375,-4.1112 -3.225704,-5.4901 -2.480954,-2.5877 -5.451122,-4.7088 -8.822636,-6.4239 -0.113818,-0.055 -0.230312,-0.1049 -0.344843,-0.1587 z m -12.609864,0.8118 c 0.285224,0 0.568233,0.012 0.848379,0.031 l -2.420039,4.1901 c -3.396416,0.6886 -5.944824,3.5783 -5.944824,7.0373 0,0.8689 0.160019,1.7008 0.454707,2.4719 3.33e-4,0 -3.34e-4,0 0,0 l -2.426143,4.2023 c -1.439609,-1.8676 -2.288818,-4.1762 -2.288818,-6.6742 0,-6.219 5.271777,-11.261 11.776738,-11.261 z m 7.040401,8.8348 -5.453486,9.4483 c 3.378164,-0.7016 5.908203,-3.5781 5.908203,-7.0252 0,-0.853 -0.170235,-1.6641 -0.454717,-2.4231 z"
     style="fill:#333333;stroke-width:0.04166667" />
</svg>
