<?xml version="1.0" encoding="UTF-8" standalone="no"?>
<svg
   xmlns="http://www.w3.org/2000/svg"
   width="560pt"
   height="135pt"
   viewBox="0 0 560 135"
   version="1.1"
   id="svg38">
  <defs
     id="defs42" />
  <g
     id="#0684e7ff">
    <path
       fill="#0684e7"
       opacity="1.00"
       d=" M 45.00 0.00 L 90.00 0.00 C 89.99 15.00 90.01 29.99 89.99 44.99 C 75.00 45.01 60.00 45.01 45.01 44.99 C 44.99 29.99 45.01 15.00 45.00 0.00 Z"
       id="path2" />
  </g>
  <g
     id="#000000ff"
     style="fill:#333333">
    <path
       fill="#000000"
       opacity="1.00"
       d=" M 532.29 21.21 C 543.73 19.35 555.73 27.28 558.37 38.60 C 561.90 50.72 553.70 64.55 541.39 67.30 C 529.52 70.65 516.02 62.87 513.03 50.89 C 508.87 37.80 518.65 22.79 532.29 21.21 M 531.45 24.69 C 521.86 26.59 514.46 36.19 515.45 45.99 C 515.93 56.34 525.58 65.35 536.01 64.61 C 547.57 65.02 557.41 53.50 555.72 42.15 C 554.66 30.70 542.68 22.06 531.45 24.69 Z"
       id="path5"
       style="fill:#333333" />
    <path
       fill="#000000"
       opacity="1.00"
       d=" M 527.01 31.03 C 532.27 31.27 538.27 29.85 542.87 33.12 C 546.90 37.13 545.27 44.34 540.29 46.82 C 542.66 50.56 545.14 54.22 547.44 58.00 C 545.72 58.00 544.01 58.00 542.30 57.99 C 540.14 54.68 538.07 51.32 535.93 48.01 C 534.49 48.00 533.06 47.99 531.63 47.99 C 531.60 51.32 531.59 54.65 531.59 57.98 C 530.07 57.99 528.54 58.00 527.03 58.02 C 526.96 49.02 527.00 40.02 527.01 31.03 M 531.63 34.95 C 531.57 37.99 531.57 41.02 531.63 44.06 C 535.21 44.48 540.83 43.80 540.56 38.97 C 540.42 34.33 534.84 34.96 531.63 34.95 Z"
       id="path7"
       style="fill:#333333" />
    <path
       fill="#000000"
       opacity="1.00"
       d=" M 183.44 45.25 C 186.21 45.18 188.99 45.15 191.77 45.14 C 197.65 60.88 203.67 76.57 209.36 92.38 C 206.66 92.41 203.97 92.41 201.28 92.36 C 199.72 88.01 198.20 83.63 196.58 79.30 C 190.55 79.25 184.52 79.22 178.49 79.32 C 176.94 83.67 175.50 88.05 173.90 92.38 C 171.23 92.41 168.57 92.41 165.91 92.38 C 171.67 76.64 177.56 60.95 183.44 45.25 M 187.62 52.18 C 185.67 59.10 183.10 65.83 180.91 72.67 C 185.44 72.68 189.97 72.70 194.51 72.61 C 192.14 65.82 189.79 59.03 187.62 52.18 Z"
       id="path9"
       style="fill:#333333" />
    <path
       fill="#000000"
       opacity="1.00"
       d=" M 215.65 45.65 C 223.41 45.56 231.55 44.41 239.02 47.06 C 249.32 50.68 249.53 67.28 240.20 72.16 C 235.14 75.14 229.08 74.80 223.44 74.96 C 223.36 80.77 223.46 86.58 223.37 92.39 C 220.82 92.40 218.27 92.39 215.73 92.35 C 215.61 76.78 215.76 61.22 215.65 45.65 M 223.44 51.92 C 223.41 57.43 223.36 62.93 223.48 68.44 C 227.33 68.28 231.43 68.70 235.04 67.03 C 240.33 64.49 240.43 55.44 235.02 52.99 C 231.36 51.48 227.30 51.92 223.44 51.92 Z"
       id="path11"
       style="fill:#333333" />
    <path
       fill="#000000"
       opacity="1.00"
       d=" M 256.41 45.49 C 264.22 45.75 272.42 44.31 279.90 47.14 C 289.96 50.88 290.12 67.14 281.02 72.08 C 275.94 75.16 269.79 74.83 264.08 74.92 C 263.99 80.74 264.10 86.55 264.01 92.37 C 261.48 92.40 258.96 92.41 256.45 92.42 C 256.28 76.78 256.36 61.13 256.41 45.49 M 264.08 51.88 C 264.02 57.39 264.03 62.89 264.08 68.40 C 267.84 68.33 271.78 68.64 275.35 67.20 C 281.13 64.85 281.18 54.94 275.21 52.80 C 271.66 51.49 267.79 51.94 264.08 51.88 Z"
       id="path13"
       style="fill:#333333" />
    <path
       fill="#000000"
       opacity="1.00"
       d=" M 297.06 45.48 C 300.18 45.44 303.30 45.45 306.42 45.51 C 314.18 57.78 321.64 70.25 329.57 82.42 C 329.22 70.09 329.17 57.74 329.35 45.40 C 331.61 45.39 333.88 45.39 336.15 45.38 C 336.41 61.03 336.24 76.68 336.24 92.34 C 333.14 92.42 330.05 92.43 326.95 92.39 C 319.03 80.05 311.61 67.39 303.55 55.14 C 304.22 67.55 304.04 79.97 303.98 92.39 C 301.67 92.40 299.35 92.40 297.04 92.39 C 297.01 76.75 296.99 61.11 297.06 45.48 Z"
       id="path15"
       style="fill:#333333" />
    <path
       fill="#000000"
       opacity="1.00"
       d=" M 348.79 45.41 C 357.66 45.43 366.53 45.31 375.40 45.48 C 375.38 47.63 375.37 49.78 375.36 51.94 C 369.06 52.03 362.76 51.87 356.46 52.03 C 356.43 56.23 356.42 60.42 356.46 64.62 C 362.37 64.74 368.29 64.58 374.20 64.73 C 374.20 66.83 374.19 68.93 374.18 71.04 C 368.28 71.15 362.37 71.01 356.46 71.11 C 356.43 76.00 356.43 80.89 356.46 85.78 C 362.77 85.86 369.07 85.72 375.38 85.86 C 375.38 88.03 375.37 90.19 375.37 92.36 C 366.51 92.42 357.65 92.44 348.79 92.36 C 348.70 76.71 348.70 61.06 348.79 45.41 Z"
       id="path17"
       style="fill:#333333" />
    <path
       fill="#000000"
       opacity="1.00"
       d=" M 380.38 45.42 C 392.18 45.38 403.97 45.39 415.77 45.41 C 415.79 47.60 415.80 49.79 415.82 51.97 C 411.21 52.02 406.60 51.97 402.00 52.06 C 401.89 65.50 402.02 78.94 401.94 92.38 C 399.36 92.41 396.80 92.40 394.23 92.38 C 394.18 78.93 394.28 65.48 394.19 52.04 C 389.57 51.97 384.94 52.03 380.32 51.96 C 380.33 49.78 380.35 47.60 380.38 45.42 Z"
       id="path19"
       style="fill:#333333" />
    <path
       fill="#000000"
       opacity="1.00"
       d=" M 435.37 45.55 C 443.99 43.10 454.63 45.49 459.39 53.63 C 464.35 62.21 464.28 73.37 460.35 82.34 C 454.44 95.39 433.82 96.82 425.69 85.31 C 417.34 72.98 419.41 50.59 435.37 45.55 M 437.28 48.29 C 429.99 49.75 425.49 56.94 424.91 63.97 C 424.09 71.86 424.77 81.29 431.41 86.66 C 439.31 92.55 453.03 90.69 457.20 81.10 C 460.57 72.84 460.70 62.64 456.21 54.77 C 452.43 48.33 444.09 46.78 437.28 48.29 Z"
       id="path21"
       style="fill:#333333" />
    <path
       fill="#000000"
       opacity="1.00"
       d=" M 475.88 47.86 C 482.58 43.12 491.69 44.50 498.83 47.49 C 498.53 48.08 497.94 49.26 497.64 49.85 C 491.70 48.45 485.12 46.29 479.31 49.30 C 474.06 51.61 473.24 59.81 477.87 63.12 C 483.94 67.50 492.47 67.62 497.62 73.41 C 502.28 78.98 499.71 88.38 493.11 91.18 C 486.11 94.21 477.99 93.29 470.85 91.23 C 470.84 90.44 470.80 88.86 470.79 88.07 C 477.60 89.90 485.46 91.57 492.02 88.09 C 496.91 85.55 498.13 77.85 493.71 74.31 C 488.12 69.94 480.39 69.60 474.91 65.03 C 469.80 60.70 470.35 51.63 475.88 47.86 Z"
       id="path23"
       style="fill:#333333" />
  </g>
  <g
     id="#ff6325ff">
    <path
       fill="#ff6325"
       opacity="1.00"
       d=" M 0.00 45.00 C 15.00 45.01 30.00 44.99 44.99 45.01 C 45.01 60.00 44.99 75.00 45.00 90.00 C 30.00 90.00 15.00 90.00 0.00 90.00 L 0.00 45.00 Z"
       id="path26" />
  </g>
  <g
     id="#ffbe0cff">
    <path
       fill="#ffbe0c"
       opacity="1.00"
       d=" M 90.00 45.00 C 105.00 45.00 120.00 45.00 135.00 45.00 C 135.00 60.00 135.00 75.00 135.00 90.00 C 120.00 90.00 105.00 90.00 90.00 90.00 C 90.00 75.00 90.00 60.00 90.00 45.00 Z"
       id="path29" />
  </g>
  <g
     id="#629635ff">
    <path
       fill="#629635"
       opacity="1.00"
       d=" M 0.00 90.00 C 15.00 90.00 30.00 90.00 45.00 90.00 C 45.00 105.00 45.00 120.00 45.00 135.00 L 0.00 135.00 L 0.00 90.00 Z"
       id="path32" />
  </g>
  <g
     id="#dd3121ff">
    <path
       fill="#dd3121"
       opacity="1.00"
       d=" M 45.00 90.00 C 60.00 90.01 74.99 89.98 89.99 90.01 C 90.02 105.01 89.99 120.00 90.00 135.00 L 45.00 135.00 C 45.00 120.00 45.00 105.00 45.00 90.00 Z"
       id="path35" />
  </g>
</svg>
