<?xml version="1.0" encoding="UTF-8" standalone="no"?>
<svg
   xmlns="http://www.w3.org/2000/svg"
   height="50"
   viewBox="0 0 50 50"
   width="50"
   version="1.1"
   id="svg4">
  <defs
     id="defs8" />
  <path
     d="m 34.200782,23.702738 q 0,-4.447115 -3.161058,-7.608173 -3.161058,-3.161058 -7.608173,-3.161058 -4.447115,0 -7.608173,3.161058 -3.161058,3.161058 -3.161058,7.608173 0,4.447115 3.161058,7.608173 3.161058,3.161058 7.608173,3.161058 4.447115,0 7.608173,-3.161058 3.161058,-3.161058 3.161058,-7.608173 z m 12.307692,20 q 0,1.25 -0.913462,2.163461 -0.913461,0.913462 -2.163461,0.913462 -1.298077,0 -2.163462,-0.913462 l -8.245192,-8.221153 q -4.302885,2.980769 -9.591346,2.980769 -3.4375,0 -6.574519,-1.334135 -3.137019,-1.334134 -5.408654,-3.605769 -2.2716346,-2.271635 -3.6057688,-5.408654 -1.3341346,-3.137019 -1.3341346,-6.574519 0,-3.4375 1.3341346,-6.574519 1.3341342,-3.13702 3.6057688,-5.408654 2.271635,-2.271635 5.408654,-3.605769 3.137019,-1.334135 6.574519,-1.334135 3.4375,0 6.574519,1.334135 3.137019,1.334134 5.408654,3.605769 2.271635,2.271634 3.605769,5.408654 1.334135,3.137019 1.334135,6.574519 0,5.288461 -2.980769,9.591346 l 8.245192,8.245192 q 0.889423,0.889423 0.889423,2.163462 z"
     id="path2"
     style="fill:#333333;stroke-width:0.02403846" />
</svg>
