<?xml version="1.0" encoding="UTF-8" standalone="no"?>
<svg
   xmlns="http://www.w3.org/2000/svg"
   viewBox="0 0 50 50"
   version="1.1"
   id="svg57"
   width="50"
   height="50">
  <defs
     id="defs61" />
  <path
     d="M 5.2449869,9.3306137 V 6.830614 c 0,-1.1875 0.9553572,-2.1428572 2.1428571,-2.1428572 h 10 L 18.22713,3.018114 c 0.357143,-0.7321429 1.098214,-1.1875 1.910714,-1.1875 h 10.205357 c 0.8125,0 1.553572,0.4553571 1.919643,1.1875 l 0.839286,1.6696428 h 10 c 1.1875,0 2.142857,0.9553572 2.142857,2.1428572 v 2.4999997 c 0,0.589286 -0.482143,1.0714293 -1.071429,1.0714293 H 6.3164155 c -0.5892857,0 -1.0714286,-0.4821433 -1.0714286,-1.0714293 z M 42.316416,14.393114 40.494987,43.527043 C 40.35213,45.785971 38.47713,47.5449 36.218201,47.5449 H 14.271773 c -2.258929,0 -4.133929,-1.758929 -4.2767861,-4.017857 L 8.1735583,14.393114 C 8.137844,13.777043 8.6289155,13.259186 9.2449869,13.259186 H 41.253916 c 0.607142,0 1.098214,0.517857 1.0625,1.133928 z"
     id="path55"
     style="stroke-width:0.08928572;fill:#333333" />
</svg>
