<?xml version="1.0" encoding="UTF-8" standalone="no"?>
<svg
   xmlns="http://www.w3.org/2000/svg"
   version="1.1"
   id="Capa_1"
   x="0px"
   y="0px"
   viewBox="0 0 74.999998 74.999998"
   xml:space="preserve"
   width="75"
   height="75">
<path
   d="m 68.765938,39.70946 5.21442,14.65657 H 0.6991882 L 9.151299,30.60885 c 0.337319,-0.94813 1.241194,-1.58232 2.255065,-1.58232 h 20.953008 c 4.131683,8.517 12.920793,14.40998 23.072253,14.40998 4.882203,3.2e-4 9.448765,-1.36449 13.334313,-3.72705 z m 5.913608,19.39878 v 7.82906 c 0,4.44598 -3.647703,8.0627 -8.131371,8.0627 H 8.131371 C 3.6477026,75 0,71.38328 0,66.9373 v -7.82906 z m -18.723769,6.88189 c 0,-1.44037 -1.177747,-2.60822 -2.630325,-2.60822 -1.452577,0 -2.630325,1.16785 -2.630325,2.60822 0,1.44036 1.177748,2.60821 2.630325,2.60821 1.452578,0 2.630325,-1.16785 2.630325,-2.60821 z m 11.876316,0 c 0,-1.44037 -1.177748,-2.60822 -2.630325,-2.60822 -1.452577,0 -2.630325,1.16785 -2.630325,2.60822 0,1.44036 1.177748,2.60821 2.630325,2.60821 1.452577,0 2.630325,-1.16785 2.630325,-2.60821 z M 54.869852,31.69197 c -37.241574,28.87202 -18.620787,14.43601 0,0 z"
   id="path2"
   style="fill:#ffffff;stroke-width:0.31748432" />
<g
   id="g4"
   transform="matrix(0.31882726,0,0,0.31614702,-0.9925093,-0.66568)">
</g>
<g
   id="g6"
   transform="matrix(0.31882726,0,0,0.31614702,-0.9925093,-0.66568)">
</g>
<g
   id="g8"
   transform="matrix(0.31882726,0,0,0.31614702,-0.9925093,-0.66568)">
</g>
<g
   id="g10"
   transform="matrix(0.31882726,0,0,0.31614702,-0.9925093,-0.66568)">
</g>
<g
   id="g12"
   transform="matrix(0.31882726,0,0,0.31614702,-0.9925093,-0.66568)">
</g>
<g
   id="g14"
   transform="matrix(0.31882726,0,0,0.31614702,-0.9925093,-0.66568)">
</g>
<g
   id="g16"
   transform="matrix(0.31882726,0,0,0.31614702,-0.9925093,-0.66568)">
</g>
<g
   id="g18"
   transform="matrix(0.31882726,0,0,0.31614702,-0.9925093,-0.66568)">
</g>
<g
   id="g20"
   transform="matrix(0.31882726,0,0,0.31614702,-0.9925093,-0.66568)">
</g>
<g
   id="g22"
   transform="matrix(0.31882726,0,0,0.31614702,-0.9925093,-0.66568)">
</g>
<g
   id="g24"
   transform="matrix(0.31882726,0,0,0.31614702,-0.9925093,-0.66568)">
</g>
<g
   id="g26"
   transform="matrix(0.31882726,0,0,0.31614702,-0.9925093,-0.66568)">
</g>
<g
   id="g28"
   transform="matrix(0.31882726,0,0,0.31614702,-0.9925093,-0.66568)">
</g>
<g
   id="g30"
   transform="matrix(0.31882726,0,0,0.31614702,-0.9925093,-0.66568)">
</g>
<g
   id="g32"
   transform="matrix(0.31882726,0,0,0.31614702,-0.9925093,-0.66568)">
</g>
<g
   id="g945"
   transform="matrix(0.83927213,0,0,0.84579753,34.379229,0)"
   style="fill:#ffffff"><g
     id="g889"
     style="fill:#ffffff">
	<path
   id="path887"
   d="m 48.4,24.2 c 0,-1.8 -1.297,-3.719 -2.896,-4.285 -1.599,-0.566 -3.149,-1.952 -3.6,-3.045 C 41.453,15.777 41.57,13.697 42.3,12.165 43.029,10.633 42.587,8.358 41.314,7.085 40.042,5.812 37.767,5.371 36.234,6.1 34.702,6.829 32.625,6.948 31.535,6.497 30.445,6.046 29.058,4.494 28.49,2.895 27.921,1.296 26,0 24.2,0 22.4,0 20.479,1.296 19.91,2.895 19.341,4.494 17.955,6.046 16.865,6.497 15.775,6.948 13.697,6.829 12.165,6.1 10.633,5.371 8.358,5.812 7.085,7.085 5.812,8.358 5.371,10.632 6.1,12.165 6.829,13.698 6.945,15.776 6.492,16.868 6.039,17.96 4.494,19.349 2.895,19.915 1.296,20.481 0,22.4 0,24.2 c 0,1.8 1.296,3.721 2.895,4.29 1.599,0.568 3.146,1.957 3.599,3.047 0.453,1.089 0.335,3.166 -0.394,4.698 -0.729,1.532 -0.288,3.807 0.985,5.08 1.273,1.272 3.547,1.714 5.08,0.985 1.533,-0.729 3.61,-0.847 4.7,-0.395 1.091,0.452 2.476,2.008 3.045,3.604 0.569,1.596 2.49,2.891 4.29,2.891 1.8,0 3.721,-1.295 4.29,-2.891 0.568,-1.596 1.953,-3.15 3.043,-3.604 1.09,-0.453 3.17,-0.334 4.701,0.396 1.533,0.729 3.808,0.287 5.08,-0.985 1.273,-1.273 1.715,-3.548 0.986,-5.08 -0.729,-1.533 -0.849,-3.61 -0.398,-4.7 0.451,-1.09 2.004,-2.477 3.603,-3.045 C 47.104,27.921 48.4,26 48.4,24.2 Z m -24.2,8.88 c -4.91,0 -8.88,-3.97 -8.88,-8.87 0,-4.91 3.97,-8.88 8.88,-8.88 4.899,0 8.87,3.97 8.87,8.88 0,4.9 -3.97,8.87 -8.87,8.87 z"
   style="fill:#ffffff" />
</g><g
     id="g891"
     style="fill:#ffffff">
</g><g
     id="g893"
     style="fill:#ffffff">
</g><g
     id="g895"
     style="fill:#ffffff">
</g><g
     id="g897"
     style="fill:#ffffff">
</g><g
     id="g899"
     style="fill:#ffffff">
</g><g
     id="g901"
     style="fill:#ffffff">
</g><g
     id="g903"
     style="fill:#ffffff">
</g><g
     id="g905"
     style="fill:#ffffff">
</g><g
     id="g907"
     style="fill:#ffffff">
</g><g
     id="g909"
     style="fill:#ffffff">
</g><g
     id="g911"
     style="fill:#ffffff">
</g><g
     id="g913"
     style="fill:#ffffff">
</g><g
     id="g915"
     style="fill:#ffffff">
</g><g
     id="g917"
     style="fill:#ffffff">
</g><g
     id="g919"
     style="fill:#ffffff">
</g></g></svg>