<?xml version="1.0" encoding="utf-8"?>
<!-- Generator: Adobe Illustrator 15.0.2, SVG Export Plug-In . SVG Version: 6.00 Build 0)  -->
<!DOCTYPE svg PUBLIC "-//W3C//DTD SVG 1.1//EN" "http://www.w3.org/Graphics/SVG/1.1/DTD/svg11.dtd">
<svg version="1.1" id="foursquare" xmlns="http://www.w3.org/2000/svg" xmlns:xlink="http://www.w3.org/1999/xlink" x="0px" y="0px"
	 width="64px" height="64px" viewBox="0 0 64 64" enable-background="new 0 0 64 64" xml:space="preserve">
<rect fill="#22BBDD" width="64" height="64"/>
<g>
	<g>
		<path fill="#FFFFFF" d="M54.558,20.681l-3.584-3.599c-0.288-0.287-0.664-0.445-1.068-0.444c-0.404-0.001-0.782,0.157-1.069,0.442
			L31.682,34.291l-7.508-7.544c-0.281-0.282-0.668-0.445-1.068-0.444c-0.396,0.001-0.786,0.162-1.067,0.441l-3.59,3.598
			c-0.591,0.589-0.593,1.548-0.002,2.142l12.152,12.211c0.244,0.246,0.561,0.394,0.896,0.434c0.057,0.005,0.114,0.009,0.173,0.008
			c0.004,0,0.008,0,0.011,0l0.001,0.001c0.406,0.003,0.791-0.156,1.078-0.443l21.8-21.873
			C55.146,22.233,55.147,21.274,54.558,20.681z"/>
	</g>
	<g>
		<path fill="#FFFFFF" d="M53.21,28.092L34.746,46.616c-0.797,0.793-1.853,1.228-2.976,1.228l-0.819-0.001l-0.173-0.114
			c-0.752-0.18-1.447-0.57-1.998-1.122L16.632,34.397c-0.796-0.798-1.235-1.857-1.234-2.984c0-1.128,0.439-2.191,1.235-2.984
			l3.594-3.604c0.78-0.778,1.861-1.226,2.974-1.229c1.108,0,2.192,0.454,2.972,1.239l5.601,5.628l11.898-11.938l-7.925-7.948
			c-2.099-2.104-5.53-2.104-7.628,0L10.574,28.176c-2.098,2.102-2.098,5.546,0,7.648l17.547,17.599c2.098,2.104,5.529,2.104,7.628,0
			l17.546-17.599c2.098-2.103,2.098-5.547,0-7.648L53.21,28.092z"/>
	</g>
</g>
</svg>
