<?xml version="1.0" encoding="utf-8"?>
<!-- Generator: Adobe Illustrator 15.0.2, SVG Export Plug-In . SVG Version: 6.00 Build 0)  -->
<!DOCTYPE svg PUBLIC "-//W3C//DTD SVG 1.1//EN" "http://www.w3.org/Graphics/SVG/1.1/DTD/svg11.dtd">
<svg version="1.1" id="Ebene_1" xmlns="http://www.w3.org/2000/svg" xmlns:xlink="http://www.w3.org/1999/xlink" x="0px" y="0px"
	 width="64px" height="64px" viewBox="0 0 64 64" enable-background="new 0 0 64 64" xml:space="preserve">
<rect fill="#EE7700" width="64" height="64"/>
<path fill-rule="evenodd" clip-rule="evenodd" fill="#FFFFFF" d="M53.867,28.273l-0.368-0.765l-0.62-0.485
	c-0.812-0.633-4.913,0.044-6.021-0.956c-0.781-0.72-0.899-2.014-1.136-3.764c-0.442-3.396-0.723-3.572-1.254-4.719
	c-1.934-4.086-7.171-7.159-10.771-7.585h-9.753C16.271,10,10,16.262,10,23.907v16.214C10,47.752,16.271,54,23.944,54h16.024
	c7.673,0,13.899-6.248,13.944-13.879L54,28.89L53.867,28.273z M24.121,21.363h7.731c1.476,0,2.671,1.191,2.671,2.646
	s-1.195,2.661-2.671,2.661h-7.731c-1.476,0-2.671-1.206-2.671-2.661S22.646,21.363,24.121,21.363z M39.835,42.563H24.121
	c-1.476,0-2.671-1.205-2.671-2.646c0-1.455,1.195-2.646,2.671-2.646h15.714c1.461,0,2.656,1.191,2.656,2.646
	C42.491,41.357,41.296,42.563,39.835,42.563z"/>
</svg>
