<?xml version="1.0" encoding="utf-8"?>
<!-- Generator: Adobe Illustrator 15.0.2, SVG Export Plug-In . SVG Version: 6.00 Build 0)  -->
<!DOCTYPE svg PUBLIC "-//W3C//DTD SVG 1.1//EN" "http://www.w3.org/Graphics/SVG/1.1/DTD/svg11.dtd">
<svg version="1.1" id="Twitter" xmlns="http://www.w3.org/2000/svg" xmlns:xlink="http://www.w3.org/1999/xlink" x="0px" y="0px"
	 width="64px" height="64px" viewBox="0 0 64 64" enable-background="new 0 0 64 64" xml:space="preserve">
<rect fill="#335588" width="64" height="64"/>
<path fill="#FFFFFF" d="M48.77,10H15.231C12.342,10,10,12.336,10,15.219V48.78c0,2.882,2.342,5.22,5.231,5.22H48.77
	c2.889,0,5.23-2.338,5.23-5.22V15.219C54,12.336,51.658,10,48.77,10z M40.564,16.241c0-0.677,0.551-1.226,1.229-1.226h5.951
	c0.679,0,1.229,0.549,1.229,1.226v5.936c0,0.68-0.551,1.228-1.229,1.228h-5.951c-0.679,0-1.229-0.548-1.229-1.228V16.241z
	 M32.052,23.61c4.672,0,8.461,3.78,8.461,8.441s-3.789,8.44-8.461,8.44c-4.674,0-8.463-3.779-8.463-8.44S27.378,23.61,32.052,23.61z
	 M49.078,47.657c0,0.677-0.555,1.226-1.232,1.226H16.257c-0.681,0-1.231-0.549-1.231-1.226V28.521h4.116
	c-0.309,1.125-0.475,2.308-0.475,3.53c0,7.36,6.004,13.353,13.385,13.353c7.379,0,13.383-5.992,13.383-13.353
	c0-1.223-0.166-2.405-0.476-3.53h4.119V47.657z"/>
</svg>
