<?xml version="1.0" encoding="utf-8"?>
<!-- Generator: Adobe Illustrator 15.0.2, SVG Export Plug-In . SVG Version: 6.00 Build 0)  -->
<!DOCTYPE svg PUBLIC "-//W3C//DTD SVG 1.1//EN" "http://www.w3.org/Graphics/SVG/1.1/DTD/svg11.dtd">
<svg version="1.1" id="Ebene_1" xmlns="http://www.w3.org/2000/svg" xmlns:xlink="http://www.w3.org/1999/xlink" x="0px" y="0px"
	 width="64px" height="64px" viewBox="0 0 64 64" enable-background="new 0 0 64 64" xml:space="preserve">
<rect fill="#11BBEE" width="64" height="64"/>
<path fill="#FFFFFF" d="M51.979,23.771c-0.197,4.285-3.188,10.152-8.974,17.599c-5.982,7.778-11.044,11.667-15.184,11.667
	c-2.564,0-4.735-2.367-6.508-7.105c-1.184-4.343-2.367-8.685-3.551-13.027c-1.316-4.735-2.728-7.106-4.238-7.106
	c-0.329,0-1.481,0.693-3.453,2.073L8,25.204c2.171-1.908,4.313-3.816,6.421-5.728c2.896-2.503,5.069-3.819,6.519-3.952
	c3.424-0.33,5.532,2.012,6.323,7.024c0.854,5.407,1.447,8.771,1.779,10.087c0.986,4.488,2.073,6.728,3.259,6.728
	c0.921,0,2.305-1.455,4.149-4.365c1.842-2.911,2.83-5.125,2.962-6.647c0.264-2.512-0.725-3.771-2.962-3.771
	c-1.054,0-2.14,0.243-3.257,0.722c2.162-7.085,6.294-10.526,12.393-10.33C50.107,15.104,52.237,18.038,51.979,23.771z"/>
</svg>
