<?xml version="1.0" encoding="utf-8"?>
<!-- Generator: Adobe Illustrator 15.0.2, SVG Export Plug-In . SVG Version: 6.00 Build 0)  -->
<!DOCTYPE svg PUBLIC "-//W3C//DTD SVG 1.1//EN" "http://www.w3.org/Graphics/SVG/1.1/DTD/svg11.dtd">
<svg version="1.1" id="Twitter" xmlns="http://www.w3.org/2000/svg" xmlns:xlink="http://www.w3.org/1999/xlink" x="0px" y="0px"
	 width="64px" height="64px" viewBox="0 0 64 64" enable-background="new 0 0 64 64" xml:space="preserve">
<rect fill="#EE4422" width="64" height="64"/>
<path id="icon" fill="#FFFFFF" d="M34.594,27.304l3.347,1.56l4.99-1.49V23.91C42.754,18.017,37.938,13.29,32,13.29
	c-5.916,0-10.721,4.692-10.931,10.556v15.821c0,1.433-1.161,2.594-2.593,2.594c-1.432,0-2.593-1.161-2.593-2.594v-6.704H7.5
	c0,0,0,6.715,0,6.794c0,6.05,4.904,10.953,10.954,10.953c5.996,0,10.856-4.819,10.941-10.796l0.012-15.626
	c0-1.432,1.161-2.593,2.593-2.593c1.432,0,2.594,1.161,2.594,2.593V27.304z M48.117,32.963v7.018c0,1.432-1.161,2.593-2.593,2.593
	c-1.433,0-2.594-1.161-2.594-2.593v-6.885l-4.99,1.49l-3.347-1.56v6.827c0.052,6.005,4.937,10.856,10.953,10.856
	c6.049,0,10.953-4.903,10.953-10.953c0-0.079,0-6.794,0-6.794H48.117z"/>
</svg>
