<?xml version="1.0" encoding="utf-8"?>
<!-- Generator: Adobe Illustrator 15.0.2, SVG Export Plug-In . SVG Version: 6.00 Build 0)  -->
<!DOCTYPE svg PUBLIC "-//W3C//DTD SVG 1.1//EN" "http://www.w3.org/Graphics/SVG/1.1/DTD/svg11.dtd">
<svg version="1.1" id="Twitter" xmlns="http://www.w3.org/2000/svg" xmlns:xlink="http://www.w3.org/1999/xlink" x="0px" y="0px"
	 width="64px" height="64px" viewBox="0 0 64 64" enable-background="new 0 0 64 64" xml:space="preserve">
<rect fill="#CC1122" width="64" height="64"/>
<path fill="#FFFFFF" d="M33.125,8c-13.1,0-19.705,9.392-19.705,17.223c0,4.742,1.795,8.96,5.646,10.533
	c0.631,0.258,1.197,0.009,1.38-0.69c0.127-0.483,0.429-1.704,0.563-2.211c0.185-0.691,0.113-0.935-0.396-1.537
	c-1.11-1.31-1.82-3.005-1.82-5.406c0-6.968,5.213-13.206,13.574-13.206c7.404,0,11.472,4.524,11.472,10.566
	c0,7.949-3.518,14.659-8.741,14.659c-2.885,0-5.043-2.386-4.352-5.311c0.829-3.492,2.435-7.262,2.435-9.783
	c0-2.257-1.212-4.139-3.719-4.139c-2.948,0-5.317,3.05-5.317,7.137c0,2.602,0.879,4.362,0.879,4.362s-3.017,12.784-3.546,15.023
	c-1.053,4.459-0.158,9.926-0.083,10.478c0.044,0.327,0.465,0.405,0.655,0.157c0.271-0.354,3.784-4.69,4.978-9.021
	c0.338-1.228,1.939-7.579,1.939-7.579c0.958,1.827,3.757,3.437,6.735,3.437c8.863,0,14.877-8.08,14.877-18.895
	C50.58,15.616,43.652,8,33.125,8z"/>
</svg>
