<?xml version="1.0" encoding="utf-8"?>
<!-- Generator: Adobe Illustrator 15.0.2, SVG Export Plug-In . SVG Version: 6.00 Build 0)  -->
<!DOCTYPE svg PUBLIC "-//W3C//DTD SVG 1.1//EN" "http://www.w3.org/Graphics/SVG/1.1/DTD/svg11.dtd">
<svg version="1.1" id="Ebene_1" xmlns="http://www.w3.org/2000/svg" xmlns:xlink="http://www.w3.org/1999/xlink" x="0px" y="0px"
	 width="64px" height="64px" viewBox="0 0 64 64" enable-background="new 0 0 64 64" xml:space="preserve">
<rect fill="#00AAAA" width="64" height="64"/>
<g>
	<path fill="#FFFFFF" d="M14.202,34.38V15.489c0-3.129,0.796-4.11,3.66-4.11h28.543c2.713,0,3.67,1.166,3.67,4.11V33.79l2.206-1.524
		V13.469c0-2.472-1.858-4.469-4.146-4.469H15.888c-2.287,0-4.146,1.997-4.146,4.469v19.375L14.202,34.38"/>
	<path fill="#FFFFFF" d="M32.606,37.854c0-1.604,0.739-2.678,3.036-2.563c3.314,0.105,9.827,0.854,17.169-4.388
		c1.375-0.959,2.275,0.347,1.433,1.594c-1.639,2.01-4.757,4.503-9.537,6.466c5.069,17.227-12.344,19.964-12.078,11.132
		C32.629,50.347,32.606,37.854,32.606,37.854"/>
	<path fill="#FFFFFF" d="M31.406,27.994c0,2.863-2.483,5.184-5.543,5.184s-5.542-2.32-5.542-5.184c0-2.864,2.482-5.185,5.542-5.185
		S31.406,25.13,31.406,27.994"/>
	<path fill="#FFFFFF" d="M33.218,27.994c0,2.863,2.482,5.184,5.542,5.184c3.062,0,5.544-2.32,5.544-5.184
		c0-2.864-2.482-5.185-5.544-5.185C35.7,22.81,33.218,25.13,33.218,27.994"/>
	<path fill="#FFFFFF" d="M39.674,36.642c-2.403,3.304-5.266,2.69-8.626-0.426c-0.097-0.09-0.187-0.168-0.274-0.241
		c-0.151-0.156-0.339-0.285-0.558-0.391c-0.096-0.05-0.18-0.082-0.26-0.105c-0.422-0.146-0.94-0.219-1.598-0.188
		c-3.314,0.105-9.826,0.854-17.17-4.388c-1.374-0.959-2.274,0.347-1.432,1.594c1.64,2.01,4.757,4.503,9.537,6.466
		c-5.058,17.227,12.344,19.964,12.078,11.132c0,0.163,0.009-5.014,0.017-8.687c2.022,0.479,2.876,0.917,5.663,0.28
		c2.668-0.623,3.973-2.518,4.526-3.867C42.503,35.568,40.908,34.933,39.674,36.642z"/>
</g>
</svg>
