<?xml version="1.0" encoding="utf-8"?>
<!-- Generator: Adobe Illustrator 15.0.2, SVG Export Plug-In . SVG Version: 6.00 Build 0)  -->
<!DOCTYPE svg PUBLIC "-//W3C//DTD SVG 1.1//EN" "http://www.w3.org/Graphics/SVG/1.1/DTD/svg11.dtd">
<svg version="1.1" id="Ebene_1" xmlns="http://www.w3.org/2000/svg" xmlns:xlink="http://www.w3.org/1999/xlink" x="0px" y="0px"
	 width="64px" height="64px" viewBox="0 0 64 64" enable-background="new 0 0 64 64" xml:space="preserve">
<rect fill="#119911" width="64" height="64"/>
<g>
	<g>
		<path fill-rule="evenodd" clip-rule="evenodd" fill="#FFFFFF" d="M32.396,10c-11.837,0-21.433,9.596-21.433,21.434
			c0,4.05,1.124,7.837,3.075,11.068L10.17,54l11.866-3.799c3.071,1.698,6.602,2.666,10.359,2.666
			c11.838,0,21.435-9.597,21.435-21.434C53.83,19.596,44.233,10,32.396,10z M32.396,49.276c-3.624,0-6.998-1.088-9.816-2.95
			l-6.856,2.195l2.229-6.626c-2.136-2.942-3.397-6.557-3.397-10.462c0-9.839,8.004-17.843,17.842-17.843
			c9.839,0,17.843,8.004,17.843,17.843S42.234,49.276,32.396,49.276z M42.445,36.304c-0.537-0.294-3.177-1.719-3.672-1.921
			c-0.494-0.2-0.855-0.305-1.241,0.229c-0.386,0.532-1.48,1.726-1.813,2.079c-0.333,0.354-0.653,0.387-1.191,0.091
			c-0.536-0.293-2.277-0.938-4.297-2.879c-1.572-1.512-2.604-3.343-2.902-3.902c-0.299-0.56-0.002-0.845,0.282-1.107
			c0.255-0.237,0.571-0.62,0.856-0.928c0.285-0.309,0.386-0.533,0.581-0.892c0.196-0.359,0.117-0.682-0.01-0.96
			c-0.127-0.279-1.119-3.012-1.535-4.124c-0.414-1.112-0.877-0.947-1.195-0.959c-0.319-0.012-0.683-0.071-1.048-0.084
			c-0.364-0.014-0.963,0.101-1.484,0.63c-0.521,0.528-1.984,1.799-2.086,4.491c-0.101,2.691,1.762,5.366,2.021,5.741
			c0.261,0.376,3.558,6.21,9.037,8.61s5.508,1.669,6.514,1.614c1.006-0.053,3.287-1.202,3.791-2.462s0.544-2.355,0.415-2.589
			C43.341,36.749,42.981,36.598,42.445,36.304z"/>
	</g>
</g>
</svg>
