<?xml version="1.0" encoding="utf-8"?>
<!-- Generator: Adobe Illustrator 15.0.2, SVG Export Plug-In . SVG Version: 6.00 Build 0)  -->
<!DOCTYPE svg PUBLIC "-//W3C//DTD SVG 1.1//EN" "http://www.w3.org/Graphics/SVG/1.1/DTD/svg11.dtd">
<svg version="1.1" id="Twitter" xmlns="http://www.w3.org/2000/svg" xmlns:xlink="http://www.w3.org/1999/xlink" x="0px" y="0px"
	 width="64px" height="64px" viewBox="0 0 64 64" enable-background="new 0 0 64 64" xml:space="preserve">
<rect fill="#222222" width="64" height="64"/>
<g>
	<path fill="#FFFFFF" d="M12.779,24.509c0.83-1.107,3.162-2.805,6.203-2.805c2.252,0,4.385,1.027,5.491,3.002
		c1.264-1.62,3.279-3.002,6.36-3.002c3.99,0,6.794,2.094,6.794,6.834v12.428c0,0.598-0.483,1.082-1.083,1.082h-3.618V29.96
		c0-0.751-0.157-3.833-3.317-3.833c-0.751,0-2.449,0.277-3.516,2.016c-0.909,1.421-0.948,3.041-0.948,4.621v9.284h-4.701V29.921
		c0-1.541-0.671-3.754-3.239-3.754c-0.474,0-1.501,0.119-2.489,0.948c-1.936,1.659-1.975,4.425-1.975,6.636v8.297H9.083
		C8.485,42.049,8,41.564,8,40.967V23.379c0-0.598,0.485-1.083,1.083-1.083h3.696V24.509L12.779,24.509z"/>
	<path fill="#FFFFFF" d="M44.182,47.264l1.351-5.215l-7.154-18.731c-0.201-0.564,0.122-1.021,0.72-1.021h4.039l4.613,14.207
		l3.474-14.207h3.955c0.599,0,0.947,0.465,0.779,1.041l-7.15,24.958h-3.871C44.339,48.295,44.001,47.834,44.182,47.264"/>
</g>
</svg>
