<?xml version="1.0" encoding="utf-8"?>
<!-- Generator: Adobe Illustrator 15.0.2, SVG Export Plug-In . SVG Version: 6.00 Build 0)  -->
<!DOCTYPE svg PUBLIC "-//W3C//DTD SVG 1.1//EN" "http://www.w3.org/Graphics/SVG/1.1/DTD/svg11.dtd">
<svg version="1.1" id="Ebene_1" xmlns="http://www.w3.org/2000/svg" xmlns:xlink="http://www.w3.org/1999/xlink" x="0px" y="0px"
	 width="64px" height="64px" viewBox="0 0 64 64" enable-background="new 0 0 64 64" xml:space="preserve">
<rect fill="#227799" width="64" height="64"/>
<path fill="#FFFFFF" d="M32,8C18.766,8,8,18.765,8,31.999C8,45.232,18.766,56,32,56c13.233,0,24-10.768,24-24.001
	C56,18.765,45.233,8,32,8 M10.422,31.999c0-3.127,0.671-6.098,1.869-8.782l10.293,28.201C15.385,47.922,10.422,40.539,10.422,31.999
	 M32,53.578c-2.118,0-4.163-0.311-6.096-0.879l6.475-18.813l6.633,18.171c0.044,0.106,0.097,0.205,0.154,0.298
	C36.923,53.145,34.514,53.578,32,53.578 M34.974,21.882c1.299-0.068,2.47-0.205,2.47-0.205c1.163-0.138,1.025-1.846-0.139-1.778
	c0,0-3.493,0.273-5.75,0.273c-2.12,0-5.682-0.273-5.682-0.273c-1.165-0.068-1.301,1.71-0.138,1.778c0,0,1.101,0.137,2.264,0.205
	l3.361,9.211l-4.723,14.163l-7.857-23.374c1.3-0.068,2.469-0.205,2.469-0.205c1.163-0.138,1.025-1.846-0.138-1.778
	c0,0-3.494,0.273-5.75,0.273c-0.404,0-0.882-0.009-1.389-0.025C17.83,14.29,24.461,10.421,32,10.421
	c5.618,0,10.732,2.148,14.571,5.665c-0.093-0.005-0.184-0.017-0.279-0.017c-2.119,0-3.623,1.846-3.623,3.83
	c0,1.778,1.024,3.282,2.119,5.061c0.82,1.438,1.778,3.284,1.778,5.952c0,1.846-0.709,3.989-1.642,6.975l-2.152,7.19L34.974,21.882z
	 M50.935,21.647c1.685,3.073,2.643,6.6,2.643,10.352c0,7.961-4.313,14.91-10.729,18.651l6.591-19.056
	c1.231-3.078,1.642-5.54,1.642-7.728C51.08,23.071,51.028,22.334,50.935,21.647"/>
</svg>
