<?xml version="1.0" encoding="utf-8"?>
<!-- Generator: Adobe Illustrator 15.0.2, SVG Export Plug-In . SVG Version: 6.00 Build 0)  -->
<!DOCTYPE svg PUBLIC "-//W3C//DTD SVG 1.1//EN" "http://www.w3.org/Graphics/SVG/1.1/DTD/svg11.dtd">
<svg version="1.1" id="Twitter" xmlns="http://www.w3.org/2000/svg" xmlns:xlink="http://www.w3.org/1999/xlink" x="0px" y="0px"
	 width="64px" height="64px" viewBox="0 0 64 64" enable-background="new 0 0 64 64" xml:space="preserve">
<rect fill="#445566" width="64" height="64"/>
<path fill="#EDF0F4" d="M33.691,9.5v11.374h10.678v7.064H33.691v11.54c0,2.608,0.137,4.283,0.414,5.024
	c0.275,0.74,0.791,1.331,1.541,1.773c0.996,0.597,2.134,0.896,3.417,0.896c2.276,0,4.543-0.741,6.798-2.223v7.098
	c-1.924,0.905-3.665,1.542-5.223,1.906c-1.559,0.365-3.245,0.547-5.058,0.547c-2.056,0-3.875-0.26-5.455-0.778
	c-1.581-0.521-2.929-1.262-4.045-2.222c-1.117-0.963-1.891-1.985-2.321-3.069c-0.432-1.082-0.647-2.652-0.647-4.708V27.938h-4.974
	V21.57c1.768-0.574,3.283-1.397,4.542-2.471c1.261-1.072,2.272-2.36,3.034-3.863c0.764-1.502,1.288-3.415,1.575-5.736H33.691z"/>
</svg>
