<?xml version="1.0" encoding="utf-8"?>
<!-- Generator: Adobe Illustrator 15.0.2, SVG Export Plug-In . SVG Version: 6.00 Build 0)  -->
<!DOCTYPE svg PUBLIC "-//W3C//DTD SVG 1.1//EN" "http://www.w3.org/Graphics/SVG/1.1/DTD/svg11.dtd">
<svg version="1.1" id="Ebene_1" xmlns="http://www.w3.org/2000/svg" xmlns:xlink="http://www.w3.org/1999/xlink" x="0px" y="0px"
	 width="64px" height="64px" viewBox="0 0 64 64" enable-background="new 0 0 64 64" xml:space="preserve">
<rect fill="#00BB88" width="64" height="64"/>
<path fill="#FFFFFF" d="M51.163,31.869c-1.184,0.273-2.33,0.393-3.362,0.393c-5.805,0-10.271-4.053-10.271-11.101
	c0-3.455,1.335-5.251,3.224-5.251c1.797,0,2.994,1.613,2.994,4.882c0,1.86-0.498,3.897-0.865,5.104c0,0,1.788,3.12,6.679,2.163
	c1.039-2.306,1.603-5.292,1.603-7.911C51.163,13.1,47.57,9,40.983,9C34.212,9,30.25,14.206,30.25,21.069
	c0,6.799,3.179,12.636,8.42,15.295c-2.205,4.409-5.008,8.292-7.933,11.218C25.431,41.168,20.634,32.61,18.665,15.91h-7.828
	c3.617,27.814,14.395,36.67,17.245,38.371c1.612,0.968,3,0.923,4.473,0.092c2.315-1.316,9.264-8.263,13.114-16.401
	c1.616-0.004,3.56-0.189,5.493-0.626V31.869z"/>
</svg>
