<?xml version="1.0" encoding="utf-8"?>
<!-- Generator: Adobe Illustrator 15.0.2, SVG Export Plug-In . SVG Version: 6.00 Build 0)  -->
<!DOCTYPE svg PUBLIC "-//W3C//DTD SVG 1.1//EN" "http://www.w3.org/Graphics/SVG/1.1/DTD/svg11.dtd">
<svg version="1.1" id="Twitter" xmlns="http://www.w3.org/2000/svg" xmlns:xlink="http://www.w3.org/1999/xlink" x="0px" y="0px"
	 width="64px" height="64px" viewBox="0 0 64 64" enable-background="new 0 0 64 64" xml:space="preserve">
<rect fill="#005566" width="64" height="64"/>
<g>
	<path fill="#FFFFFF" d="M15.297,17.48c-0.418,0-0.77,0.145-0.945,0.432c-0.182,0.295-0.153,0.676,0.038,1.063l4.684,8.102
		c0.005,0.019,0.005,0.024,0,0.038l-7.358,12.979c-0.189,0.383-0.183,0.77,0,1.067c0.178,0.283,0.491,0.471,0.907,0.471h6.921
		c1.034,0,1.534-0.703,1.889-1.34c0,0,7.192-12.723,7.473-13.216c-0.029-0.045-4.76-8.3-4.76-8.3
		c-0.343-0.614-0.865-1.297-1.928-1.297H15.297z"/>
	<path id="path19375" fill="#FFFFFF" d="M44.38,8c-1.034,0-1.481,0.65-1.856,1.32c0,0-14.913,26.449-15.403,27.314
		c0.025,0.047,9.835,18.046,9.835,18.046C37.301,55.296,37.834,56,38.892,56h6.913c0.422,0,0.748-0.16,0.921-0.445
		c0.184-0.29,0.178-0.683-0.016-1.068l-9.762-17.825c-0.003-0.017-0.003-0.038,0-0.046L52.275,9.512
		c0.192-0.383,0.198-0.773,0.017-1.07C52.119,8.156,51.791,8,51.375,8H44.38z"/>
</g>
</svg>
