<?xml version="1.0" encoding="utf-8"?>
<!-- Generator: Adobe Illustrator 15.0.2, SVG Export Plug-In . SVG Version: 6.00 Build 0)  -->
<!DOCTYPE svg PUBLIC "-//W3C//DTD SVG 1.1//EN" "http://www.w3.org/Graphics/SVG/1.1/DTD/svg11.dtd">
<svg version="1.1" id="Ebene_1" xmlns="http://www.w3.org/2000/svg" xmlns:xlink="http://www.w3.org/1999/xlink" x="0px" y="0px"
	 width="64px" height="64px" viewBox="0 0 64 64" enable-background="new 0 0 64 64" xml:space="preserve">
<rect fill="#DD4433" width="64" height="64"/>
<g>
	<path fill="#FFFFFF" d="M32.727,11.919c0.336,0.263,0.729,0.608,1.176,1.038c0.448,0.43,0.877,0.954,1.288,1.57
		c0.411,0.617,0.765,1.336,1.063,2.159c0.299,0.823,0.449,1.757,0.449,2.804s-0.132,1.962-0.393,2.748
		c-0.262,0.786-0.615,1.486-1.064,2.104c-0.447,0.617-0.951,1.178-1.512,1.682c-0.56,0.505-1.139,0.981-1.736,1.43
		c-0.374,0.375-0.728,0.767-1.064,1.178s-0.504,0.936-0.504,1.571s0.168,1.13,0.504,1.485c0.336,0.355,0.653,0.665,0.952,0.926
		l2.016,1.57c0.598,0.523,1.186,1.047,1.764,1.57c0.579,0.523,1.083,1.084,1.513,1.684c0.429,0.598,0.774,1.27,1.036,2.018
		c0.261,0.747,0.392,1.607,0.392,2.579c0,1.308-0.317,2.599-0.952,3.869s-1.568,2.401-2.8,3.394c-1.231,0.99-2.772,1.793-4.62,2.412
		c-1.848,0.615-3.967,0.924-6.356,0.924c-2.016,0-3.78-0.225-5.292-0.672c-1.512-0.447-2.772-1.045-3.78-1.791
		c-1.008-0.748-1.754-1.598-2.24-2.549c-0.484-0.952-0.728-1.951-0.728-2.996c0-1.008,0.308-2.156,0.924-3.443
		c0.616-1.289,1.745-2.418,3.388-3.389c0.858-0.523,1.783-0.943,2.772-1.26c0.988-0.318,1.969-0.57,2.94-0.756
		c0.97-0.188,1.885-0.318,2.744-0.393c0.858-0.074,1.605-0.13,2.24-0.168c-0.411-0.521-0.793-1.072-1.148-1.652
		c-0.355-0.578-0.532-1.296-0.532-2.155c0-0.485,0.056-0.886,0.168-1.204c0.112-0.317,0.243-0.644,0.392-0.98
		c-0.299,0.038-0.598,0.065-0.896,0.084c-0.299,0.019-0.598,0.028-0.896,0.028c-1.494,0-2.819-0.252-3.976-0.756
		c-1.158-0.504-2.128-1.167-2.912-1.988c-0.784-0.821-1.381-1.764-1.792-2.828c-0.411-1.064-0.616-2.137-0.616-3.22
		c0-1.306,0.298-2.622,0.896-3.948c0.597-1.325,1.493-2.51,2.688-3.556c1.604-1.306,3.294-2.146,5.068-2.52
		c1.773-0.373,3.425-0.56,4.956-0.56h11.536l-3.583,1.96H32.727z M34.854,44.23c0-0.709-0.122-1.354-0.364-1.932
		c-0.242-0.579-0.607-1.147-1.092-1.707c-0.485-0.561-1.12-1.141-1.904-1.736c-0.784-0.598-1.699-1.27-2.744-2.016
		c-0.224-0.038-0.42-0.057-0.588-0.057s-0.401,0-0.7,0c-0.112,0-0.374,0.009-0.784,0.027c-0.411,0.02-0.896,0.057-1.456,0.113
		c-0.56,0.055-1.158,0.148-1.792,0.279c-0.635,0.131-1.251,0.289-1.848,0.477c-0.299,0.111-0.719,0.288-1.26,0.531
		c-0.542,0.242-1.074,0.588-1.596,1.036c-0.523,0.448-0.98,1.009-1.372,1.681s-0.588,1.512-0.588,2.52
		c0,2.016,0.886,3.658,2.66,4.928c1.772,1.27,4.172,1.904,7.196,1.904c2.688,0,4.732-0.57,6.132-1.709S34.854,45.985,34.854,44.23z
		 M26.566,27.767c0.709,0,1.409-0.149,2.1-0.45c0.69-0.299,1.26-0.674,1.708-1.124c0.634-0.637,1.026-1.348,1.176-2.136
		c0.148-0.787,0.224-1.442,0.224-1.967c0-1.011-0.149-2.116-0.448-3.315c-0.299-1.199-0.747-2.322-1.344-3.372
		c-0.598-1.049-1.335-1.92-2.212-2.614c-0.877-0.693-1.895-1.04-3.052-1.04c-0.748,0-1.476,0.169-2.184,0.506
		c-0.709,0.338-1.288,0.787-1.736,1.349c-0.486,0.6-0.812,1.255-0.98,1.968c-0.168,0.712-0.252,1.442-0.252,2.191
		c0,0.937,0.14,1.986,0.42,3.147c0.28,1.162,0.708,2.248,1.288,3.259c0.579,1.012,1.307,1.864,2.184,2.557
		C24.335,27.42,25.372,27.767,26.566,27.767z"/>
</g>
<g>
	<path fill="#FFFFFF" d="M45.859,35.633v-4.651h-4.688v-3.21h4.688v-4.651h3.125v4.651h4.699v3.21h-4.699v4.651H45.859z"/>
</g>
</svg>
