<?xml version="1.0" encoding="utf-8"?>
<!-- Generator: Adobe Illustrator 15.0.2, SVG Export Plug-In . SVG Version: 6.00 Build 0)  -->
<!DOCTYPE svg PUBLIC "-//W3C//DTD SVG 1.1//EN" "http://www.w3.org/Graphics/SVG/1.1/DTD/svg11.dtd">
<svg version="1.1" id="Ebene_1" xmlns="http://www.w3.org/2000/svg" xmlns:xlink="http://www.w3.org/1999/xlink" x="0px" y="0px"
	 width="64px" height="64px" viewBox="0 0 64 64" enable-background="new 0 0 64 64" xml:space="preserve">
<rect fill="#336633" width="64" height="64"/>
<g id="Icon_Shape">
	<g>
		<path fill-rule="evenodd" clip-rule="evenodd" fill="#FFFFFF" d="M32,20.535c2.38,0,4.591,0.721,6.426,1.957l0.002-0.003
			c0.435,0.29,0.956,0.458,1.519,0.458c1.512,0,2.737-1.222,2.737-2.729c0-0.993-0.533-1.864-1.329-2.34
			c-2.683-1.77-5.897-2.801-9.355-2.801c-7.255,0-13.444,4.537-15.874,10.918H9v5.46h9.19c1.246-0.021,2.26-0.878,2.565-1.87
			c0.024-0.105,0.048-0.211,0.073-0.317c0.001-0.001,0.001-0.002,0.001-0.004v0C22.061,24.253,26.594,20.535,32,20.535z
			 M45.85,32.546l0.008,0.001c-1.285,0-2.331,0.892-2.624,1.912c-0.016,0.073-0.032,0.147-0.051,0.22
			c-0.004,0.02-0.007,0.039-0.01,0.06l-0.001-0.011c-1.228,5.014-5.764,8.736-11.172,8.736c-2.333,0-4.503-0.693-6.316-1.884
			c-0.439-0.299-0.969-0.474-1.541-0.474c-1.513,0-2.737,1.223-2.737,2.729c0,0.947,0.483,1.781,1.217,2.271l-0.001,0.001
			c2.687,1.779,5.911,2.816,9.378,2.816c7.254,0,13.444-4.537,15.875-10.919H55v-5.459H45.85z M32,25.449
			c-3.629,0-6.571,2.934-6.571,6.551c0,3.618,2.942,6.552,6.571,6.552s6.572-2.934,6.572-6.552
			C38.571,28.383,35.629,25.449,32,25.449z"/>
	</g>
</g>
</svg>
