<?xml version="1.0" encoding="utf-8"?>
<!-- Generator: Adobe Illustrator 15.0.2, SVG Export Plug-In . SVG Version: 6.00 Build 0)  -->
<!DOCTYPE svg PUBLIC "-//W3C//DTD SVG 1.1//EN" "http://www.w3.org/Graphics/SVG/1.1/DTD/svg11.dtd">
<svg version="1.1" id="Twitter" xmlns="http://www.w3.org/2000/svg" xmlns:xlink="http://www.w3.org/1999/xlink" x="0px" y="0px"
	 width="64px" height="64px" viewBox="0 0 64 64" enable-background="new 0 0 64 64" xml:space="preserve">
<rect fill="#0077AA" width="64" height="64"/>
<g>
	<path fill="#FFFFFF" d="M11.69,24.963h8.713v27.986H11.69V24.963z M16.05,11.051c2.784,0,5.045,2.26,5.045,5.041
		c0,2.784-2.261,5.045-5.045,5.045c-2.796,0-5.05-2.261-5.05-5.045C11,13.311,13.254,11.051,16.05,11.051"/>
	<path fill="#FFFFFF" d="M25.864,24.963h8.344v3.824h0.119c1.161-2.201,4.003-4.521,8.236-4.521C51.371,24.267,53,30.062,53,37.599
		v15.351h-8.697V39.342c0-3.247-0.063-7.422-4.523-7.422c-4.529,0-5.221,3.535-5.221,7.186v13.844h-8.694V24.963z"/>
</g>
</svg>
