<?xml version="1.0" encoding="utf-8"?>
<!-- Generator: Adobe Illustrator 15.0.2, SVG Export Plug-In . SVG Version: 6.00 Build 0)  -->
<!DOCTYPE svg PUBLIC "-//W3C//DTD SVG 1.1//EN" "http://www.w3.org/Graphics/SVG/1.1/DTD/svg11.dtd">
<svg version="1.1" id="Ebene_1" xmlns="http://www.w3.org/2000/svg" xmlns:xlink="http://www.w3.org/1999/xlink" x="0px" y="0px"
	 width="64px" height="64px" viewBox="0 0 64 64" enable-background="new 0 0 64 64" xml:space="preserve">
<rect fill="#CC1100" width="64" height="64"/>
<path fill="#FFFFFF" d="M29.169,42.42l-1.76-4.783c0,0-2.859,3.188-7.147,3.188c-3.794,0-6.488-3.299-6.488-8.577
	c0-6.763,3.409-9.182,6.764-9.182c4.838,0,6.377,3.134,7.697,7.147l1.76,5.498c1.759,5.334,5.058,9.623,14.569,9.623
	c6.818,0,11.437-2.09,11.437-7.588c0-4.454-2.529-6.764-7.258-7.863l-3.519-0.77c-2.419-0.55-3.134-1.54-3.134-3.189
	c0-1.869,1.484-2.969,3.903-2.969c2.64,0,4.069,0.989,4.289,3.354l5.498-0.659c-0.439-4.949-3.849-6.983-9.457-6.983
	c-4.948,0-9.787,1.87-9.787,7.863c0,3.738,1.814,6.103,6.378,7.202l3.739,0.88c2.804,0.66,3.738,1.814,3.738,3.41
	c0,2.033-1.979,2.857-5.718,2.857c-5.554,0-7.862-2.914-9.183-6.928l-1.814-5.498c-2.309-7.147-5.992-9.787-13.306-9.787
	C12.289,18.666,8,23.779,8,32.467c0,8.357,4.289,12.867,11.986,12.867C26.199,45.334,29.169,42.42,29.169,42.42L29.169,42.42z"/>
</svg>
