<?xml version="1.0" encoding="utf-8"?>
<!-- Generator: Adobe Illustrator 15.0.2, SVG Export Plug-In . SVG Version: 6.00 Build 0)  -->
<!DOCTYPE svg PUBLIC "-//W3C//DTD SVG 1.1//EN" "http://www.w3.org/Graphics/SVG/1.1/DTD/svg11.dtd">
<svg version="1.1" id="Ebene_1" xmlns="http://www.w3.org/2000/svg" xmlns:xlink="http://www.w3.org/1999/xlink" x="0px" y="0px"
	 width="64px" height="64px" viewBox="0 0 64 64" enable-background="new 0 0 64 64" xml:space="preserve">
<rect fill="#00CCFF" width="64" height="64"/>
<g>
	<g>
		<defs>
			<path id="SVGID_1_" d="M22.049,36.126c0.065-0.013,0.061,0.035,0.061,0.074C22.068,36.19,22.044,36.165,22.049,36.126"/>
		</defs>
		<defs>
			<path id="SVGID_2_" d="M20.843,28.434c-0.305,0.014-0.613,0.029-0.917,0.026c-0.128,0.112-0.448,0.092-0.729,0.1
				c-0.394,0.205-1.161,0.13-1.767,0.181c-1.204,0.533-2.876,0.712-4.478,0.952c-0.058,0-0.024,0.072-0.07,0.077
				c-0.046-0.052-0.075-0.043-0.116-0.033c-0.036,0.005-0.083,0.014-0.167-0.019c-0.478,0.109-1.075,0.13-1.484,0.288
				c-0.042,0.068-0.052,0.155-0.042,0.25c-0.221-0.039-0.085,0.182-0.174,0.239c-0.221-0.04-0.221,0.087-0.38,0.098
				c0.019,0.07-0.039,0.206,0.032,0.232c-0.056-0.299,0.549-0.338,0.629-0.126c-0.034,0.115-0.141,0.177-0.106,0.337
				c-0.085,0.071-0.269,0.204-0.24,0.279c0.013-0.1,0.245-0.037,0.282-0.126c0.004,0.067,0.065,0.061,0.135,0.051
				c0.036-0.003,0.072-0.01,0.099,0c0.087,0.021,0.129,0.154,0.243,0.125c0.129,0.208,0.208,0.437-0.068,0.569
				c-0.492,0.111-1.419,0.043-1.248,0.565c0.076-0.282,0.981-0.245,1.18-0.125c0.05,0.136-0.245,0.153-0.138,0.254
				c0.147-0.062,0.23-0.167,0.416-0.208c0.168,0.08,0.35,0.16,0.523,0.229c0.025,0.081-0.06,0.081-0.04,0.157
				c-0.085,0.031-0.223,0.031-0.361,0.028c-0.056,0-0.109-0.006-0.157,0c-0.076,0.208,0.225,0.143,0.14,0.366
				c-0.179-0.012-0.314,0.012-0.46,0.035c-0.158,0.029-0.322,0.057-0.545,0.035c-0.097,0.107-0.273,0.158-0.343,0.283
				c-0.1-0.018-0.144,0.004-0.186,0.023c-0.032,0.021-0.069,0.034-0.133,0.029c-0.01,0.134-0.257,0.172-0.139,0.334
				c0.081,0.015,0.112-0.007,0.148-0.025c0.031-0.025,0.07-0.047,0.162-0.025c0.115,0.196,0.593,0.128,0.872,0.201
				c0.077,0.148-0.017,0.335-0.034,0.541c-0.117-0.012-0.148,0.025-0.187,0.063c-0.035,0.046-0.07,0.078-0.16,0.07
				c-0.043,0.108-0.121,0.183-0.282,0.204c0.038,0.049,0.075,0.101,0.11,0.15c-0.072-0.002-0.089,0.032-0.116,0.064
				s-0.05,0.069-0.162,0.046c0.045,0.102-0.063,0.091-0.107,0.122c0.153-0.03,0.133,0.055,0.174,0.105
				c1.006,0,1.909-0.081,2.848-0.126c0.092,0,0.077,0.078,0.174,0.075c-0.027-0.066,0.014-0.094,0.102-0.075
				c0.186,0.064,0.249,0.225,0.482,0.259c0.436-0.111,1.056-0.081,1.424-0.238c0.262,0.031,0.385-0.041,0.524-0.099
				c0.068,0.058,0.419-0.049,0.555-0.106c0.184,0.106,0.542,0.044,0.799,0.106c0.055,0.014,0.024,0.044,0.101,0.05
				c0.102,0.014,0.208,0.008,0.315,0.002c0.104-0.004,0.203-0.012,0.311-0.002c0.159,0.018,0.319,0.08,0.489,0.104
				c0.53,0.069,1.375,0.018,1.741-0.055c0.138-0.027,0.148,0.044,0.235,0.055c0.05-0.063,0.198-0.073,0.28-0.055
				c0.035,0.013,0.049,0.018,0.054,0.022c-0.01,0.009,0.009,0.009,0,0c0.005-0.005,0.022-0.01,0.051-0.022
				c0.138-0.044,0.21,0.042,0.273,0.055c0.467,0.072,1.058,0.003,1.637,0c0.552-0.009,1.206,0.03,1.801,0.051
				c0.128,0.004,0.251,0,0.383-0.01c0.198-0.011,0.401-0.018,0.557,0.01c0.053,0.011,0.024,0.048,0.105,0.052
				c0.146,0.008,0.297,0.006,0.452,0.004c0.295-0.008,0.582-0.015,0.828,0.077c0.036-0.053,0.084-0.039,0.138-0.022
				c0.055,0.015,0.116,0.032,0.177-0.035c0.062,0.076,0.234,0.067,0.407,0.058c0.101-0.008,0.206-0.016,0.293,0
				c0.053-0.013,0.026-0.085,0.133-0.058c0.077-0.018,0.102,0.005,0.134,0.023c0.011,0.019,0.031,0.034,0.075,0.034
				c0.061,0.018,0.065-0.008,0.072-0.025c0.005-0.022,0.013-0.048,0.07-0.032c0.117,0.09,0.286,0.062,0.448,0.032
				c0.167-0.032,0.33-0.066,0.45,0.025c0.109-0.058,0.138-0.058,0.245,0c0.152-0.105,0.637-0.066,0.799,0
				c0.077,0.019,0.107,0,0.127-0.022c0.017-0.019,0.037-0.035,0.081-0.035c-0.012,0.062,0.038,0.05,0.106,0.058
				c0.252,0.021,0.562,0.012,0.872,0c0.291-0.008,0.576-0.02,0.827,0c0.204-0.126,0.744,0,0.933-0.133
				c-0.021,0.06,0.039,0.056,0.103,0.052c0.029-0.001,0.055-0.004,0.079,0c0.097-0.017,0.12-0.081,0.24-0.077
				c0.21,0.048,0.571-0.021,0.695,0.101c0.078-0.034,0.184-0.02,0.289-0.01c0.146,0.02,0.28,0.033,0.336-0.065
				c-0.008,0.066,0.08,0.06,0.142,0.056c0.033-0.004,0.056-0.005,0.067-0.004c0.264,0.028,0.491,0.004,0.758,0
				c0.051-0.024,0.039-0.041,0.11-0.052c0.412-0.068,0.985-0.027,1.358-0.025c0-0.099,0.186-0.063,0.271-0.101
				c0.039-0.067,0.104-0.111,0.239-0.102c-0.005-0.12,0.075-0.172,0.175-0.212c0.364-0.021,0.675,0.021,0.98,0.028
				c0.097,0,0.197-0.009,0.301-0.017c0.138-0.012,0.267-0.023,0.384-0.012c0.044,0.007,0.168,0.007,0.178,0.078
				c0.013,0.037-0.024,0.031-0.067,0.023c-0.044-0.002-0.083-0.004-0.073,0.027c0.097-0.008,0.141,0,0.177,0.019
				c0.046,0.014,0.071,0.032,0.138-0.019c0.177,0.088,0.435,0.129,0.696,0.156c0.06,0.145,0.262,0.18,0.379,0.287
				c0.338-0.041,0.443,0.097,0.657,0.15c-0.214-0.03-0.345-0.007-0.441,0.008c-0.128,0.03-0.204,0.056-0.355-0.033
				c0.04,0.103-0.093,0.067-0.138,0.104c-0.276,0.015-1.021-0.008-1.216,0.074c-0.06-0.002-0.029-0.063-0.099-0.051
				c-0.058,0.021-0.042,0.042-0.108,0.051c-0.267,0.042-0.581,0.034-0.907,0.029c-0.304-0.004-0.618-0.009-0.898,0.023
				c-0.029,0.058,0.017,0.053,0.066,0.053c0.037-0.002,0.078-0.005,0.078,0.022c-0.508,0.071-1.189,0.014-1.605,0.156
				c-0.012-0.094-0.396-0.066-0.409,0c0.002-0.066-0.089-0.06-0.181-0.051c-0.051,0.006-0.106,0.011-0.134,0
				c-0.061,0.003-0.028,0.064-0.108,0.051c-0.489,0.01-1.018-0.018-1.349,0.104c-0.034-0.062-0.152-0.058-0.272-0.053
				c-0.055,0.003-0.101,0.005-0.148,0c-0.057,0.005-0.024,0.067-0.105,0.053c-0.148-0.005-0.289,0-0.413,0.003
				c-0.167,0.008-0.31,0.012-0.453-0.003c-0.253-0.03-0.125-0.021-0.314,0c-0.106,0.011-0.247,0.008-0.385,0.005
				c-0.184-0.005-0.382-0.006-0.514,0.021c-0.01-0.026-0.06-0.026-0.109-0.023c-0.058,0-0.121,0.002-0.104-0.056
				c-0.361,0.076-0.947,0.063-1.518,0.056c-0.295-0.004-0.588-0.008-0.841-0.003c-0.186,0.005-0.525,0.026-0.695,0
				c-0.055-0.009-0.029-0.048-0.104-0.053c-0.136-0.005-0.298-0.012-0.419,0.053c-0.094-0.059-0.175-0.059-0.271,0
				c-0.117-0.07-0.305-0.062-0.496-0.055c-0.081,0.002-0.163,0.007-0.235,0.002c-1.608-0.053-3.063-0.018-4.517-0.051
				c-0.062-0.012-0.031-0.096-0.143-0.077c-0.184,0.004-0.341,0.037-0.443,0.101c-0.309,0.042-0.73-0.006-0.975,0.08
				c-0.112-0.078-0.09-0.005-0.344,0c-0.729-0.146-1.697-0.115-2.434-0.26c-0.257,0.1-0.7,0.067-0.969,0.156
				c-0.068,0.005-0.116-0.012-0.16-0.031c-0.061-0.02-0.116-0.042-0.225-0.02c-0.059,0-0.017,0.069-0.07,0.074
				c-0.777,0.216-1.707,0.315-2.777,0.313c-0.042,0.03-0.063,0.078-0.174,0.052c-0.148-0.069-0.438-0.069-0.586,0
				c-0.019-0.045-0.029-0.033-0.044-0.026c-0.014,0.007-0.042,0.012-0.094-0.025c-0.155-0.025-0.195,0.03-0.283,0.052
				c-0.167-0.097-0.693-0.063-0.872,0c-0.041-0.006-0.059-0.106-0.067,0c-0.011,0.021,0.234,0.067,0.276,0.127h0.107
				c0.291,0,0.583,0,0.767,0.077c0.14-0.106,0.346-0.069,0.562-0.034c0.199,0.034,0.402,0.065,0.55-0.018
				c-0.005,0.072,0.092,0.058,0.193,0.052c0.057-0.004,0.116-0.008,0.155,0c0.109-0.127,0.525-0.012,0.586,0
				c0.208,0.043,0.509-0.03,0.625-0.052c0.124-0.02,0.25-0.018,0.383-0.016c0.162,0.003,0.33,0.003,0.492-0.032
				c0.05-0.016,0.029-0.041,0.101-0.055c0.318-0.054,0.645-0.113,0.972-0.127c0.058-0.02,0.094-0.069,0.169-0.081
				c0.182-0.026,0.233,0.037,0.315,0.055c0.186,0.04,0.455,0.015,0.625,0.052c0.061,0.017,0.029,0.044,0.107,0.052
				c0.394,0.038,0.964,0.026,1.528,0.05c0.467,0.025,1.239,0.021,1.563-0.05c0.056-0.015,0.022-0.045,0.103-0.052
				c0.118-0.012,0.312-0.021,0.416,0c0.051,0.01,0.025,0.044,0.1,0.052c0.592,0.043,1.186,0.033,1.796,0.026
				c0.468-0.007,0.934-0.019,1.401,0.003c0.54,0.019,1.09,0.019,1.647,0.019c0.411,0,0.822,0,1.235,0.002
				c0.05,0.007,0.029,0.068,0.106,0.055c0.021-0.064,0.083-0.007,0.133,0c0.371,0.021,1.441,0.019,1.672-0.055
				c0.054,0.014,0.031,0.083,0.137,0.055c0.324-0.089,0.678-0.057,1.037-0.027c0.258,0.027,0.533,0.048,0.806,0.027
				c0.043-0.023,0.031-0.041,0.101-0.055c0.24-0.042,0.555-0.03,0.878-0.025c0.306,0.005,0.609,0.009,0.892-0.024
				c0.051,0,0.027-0.063,0.106-0.052c0.303,0.007,0.569-0.01,0.848-0.025c0.269-0.016,0.544-0.034,0.856-0.026
				c0.048-0.003,0.022-0.065,0.097-0.055c1.748-0.075,3.221-0.359,5.103-0.33c0.048-0.028,0.068-0.07,0.143-0.078
				c0.172,0.036,0.328,0.022,0.478,0.012c0.101-0.012,0.209-0.017,0.319-0.012c0.234-0.114,0.555-0.107,0.912-0.099
				c0.163,0.002,0.34,0.002,0.515-0.007c0.182-0.076,0.46-0.06,0.761-0.153c0.148-0.044,0.965-0.017,1.04,0.027
				c0.023,0.011-0.063,0.052,0,0.052c0.198-0.116,0.575-0.086,0.766-0.208c0.799,0.011,1.562-0.003,2.329-0.021
				c0.295-0.211,0.839-0.067,1.179-0.238c0.395,0.051,0.659-0.151,0.97-0.205c0.304-0.044,0.609-0.031,0.972-0.075
				c0.021-0.047,0.021-0.104,0.071-0.129h0.246c-0.032-0.129,0.158-0.083,0.167-0.178c0.249-0.089,0.414-0.225,0.563-0.388h0.377
				c0.099-0.163,0.473-0.111,0.691-0.179c-0.019-0.112,0.042-0.161,0.104-0.209c0.31-0.029,0.868-0.023,1.32-0.02
				c0.03-0.066,0.085-0.118,0.074-0.213c-0.267,0.021-0.809,0.029-1.011-0.051c-0.061-0.024-0.145-0.024-0.104-0.1
				c0.197-0.084,0.482-0.061,0.73-0.053c0.411,0.016,0.815,0.094,1.186,0.023c-0.083-0.041-0.17-0.078-0.18-0.18
				c0.037-0.043,0.328-0.11,0.18-0.127c-0.019-0.049,0.046-0.049,0.063-0.07c-0.342,0.041-0.661-0.044-0.831-0.086
				c-0.168-0.039-0.374-0.019-0.524-0.051c-0.05-0.015-0.029-0.043-0.099-0.05c-0.177-0.025-0.357-0.015-0.537-0.008
				c-0.212,0.008-0.415,0.015-0.613-0.022c-0.058-0.007-0.029-0.042-0.104-0.051c-0.163-0.008-0.326-0.004-0.496-0.002
				c-0.216,0.005-0.451,0.012-0.683-0.021c-0.016-0.107-0.17-0.109-0.173-0.23c0.097-0.012,0.224-0.006,0.346,0
				c0.204,0.009,0.411,0.022,0.484-0.052c-0.138-0.009-0.303-0.007-0.469,0c-0.354,0.013-0.71,0.02-0.853-0.129
				c0.136-0.103,0.044-0.04,0-0.183c0.345-0.094,0.616-0.234,0.772-0.459c-0.193-0.092-0.081-0.409-0.108-0.618
				c0.112-0.049,0.224-0.095,0.418-0.078c-0.046-0.116,0.078-0.111,0.173-0.126c0.021-0.111-0.232-0.019-0.214-0.13
				c0.029-0.027,0.051-0.07,0.041-0.128c0.055,0.012,0.106,0,0.152-0.013c0.041-0.009,0.08-0.019,0.124-0.019
				c0.112,0.004,0.248,0.106,0.245,0.031c0.107,0.031-0.004-0.063,0-0.078c0.003-0.042,0.131-0.102,0.067-0.182
				c0.025-0.086-0.139-0.031-0.108-0.125c0.058-0.002,0.122,0,0.108-0.056c-0.028-0.09-0.144-0.114-0.139-0.23
				c-0.358-0.053-0.797-0.104-1.109-0.05c-0.046-0.044-0.117-0.066-0.216-0.078c-0.333-0.538-1.438-0.506-2.288-0.67
				c-0.064-0.112-0.285-0.107-0.48-0.124c-0.076-0.081-0.244-0.087-0.422-0.083c-0.235-0.106-0.69-0.053-1.039-0.104
				c-0.048-0.006-0.039-0.037-0.105-0.052c-0.175-0.033-0.425-0.014-0.586-0.053c-0.063-0.01-0.037-0.037-0.11-0.043
				c-0.265-0.042-0.559-0.005-0.79-0.056c-0.06-0.013-0.037-0.043-0.108-0.051c-0.283-0.034-0.6-0.012-0.905-0.027
				c-0.244-0.007-0.51,0-0.77,0.002c-0.43,0.015-0.854,0.024-1.213-0.026c-0.048-0.009-0.076-0.053-0.099-0.053
				c0.018,0-0.052,0.046-0.105,0.053c-0.239,0.021-0.619,0.007-0.694-0.053c-0.044,0.046-0.063,0.044-0.136,0.053
				c-0.395,0.048-0.805,0.026-1.206,0.015c-0.264-0.015-0.526-0.021-0.776-0.015c-0.654,0.017-1.294,0.087-1.98,0.051
				c-0.051,0.002-0.03,0.063-0.104,0.051c-0.319,0-0.611,0.012-0.912,0.029c-0.39,0.017-0.776,0.036-1.201,0.026
				c-0.061,0-0.028,0.061-0.108,0.043c-0.156-0.018-0.321-0.004-0.493,0.005c-0.185,0.015-0.37,0.029-0.545-0.005
				c-0.056-0.01-0.025-0.042-0.108-0.043c-0.471-0.034-0.984-0.024-1.498-0.015c-0.264,0.005-0.524,0.015-0.791,0.015
				c-0.468,0-1.012-0.042-1.495-0.056c-0.06,0-0.13,0.002-0.198,0.007c-0.102,0.002-0.203,0.007-0.283-0.007
				c-0.059-0.008-0.035-0.043-0.107-0.051c-0.574-0.048-1.157-0.007-1.736-0.051c-0.053-0.007-0.039-0.043-0.104-0.053
				c-0.187-0.021-0.387-0.012-0.59-0.008c-0.243,0.015-0.481,0.02-0.695-0.016c-0.059-0.013-0.029-0.048-0.101-0.053
				c-0.306-0.02-0.633-0.02-0.955-0.017c-0.25,0-0.501,0-0.748-0.008c-0.308-0.011-0.656-0.002-1.003,0.002
				c-0.666,0.013-1.336,0.028-1.779-0.077c-0.129-0.034-0.304-0.05-0.448-0.056c-0.048-0.002-0.107-0.002-0.158-0.002
				C21.393,28.402,21.119,28.421,20.843,28.434"/>
		</defs>
		<use xlink:href="#SVGID_1_"  overflow="visible" fill="#FFFFFF"/>
		<use xlink:href="#SVGID_2_"  overflow="visible" fill="#FFFFFF"/>
		<clipPath id="SVGID_3_">
			<use xlink:href="#SVGID_1_"  overflow="visible"/>
		</clipPath>
		<clipPath id="SVGID_4_" clip-path="url(#SVGID_3_)">
			<use xlink:href="#SVGID_2_"  overflow="visible"/>
		</clipPath>
		<rect x="9.911" y="28.404" clip-path="url(#SVGID_4_)" fill="#FFFFFF" width="46.169" height="8.407"/>
	</g>
	<path fill="#FFFFFF" d="M23.703,23.889C23.688,23.886,23.698,23.901,23.703,23.889"/>
	<path fill="#FFFFFF" d="M23.587,25.271c0.05,0.057,0,0.075-0.031,0.097C23.545,25.324,23.55,25.291,23.587,25.271"/>
	<g>
		<defs>
			<polyline id="SVGID_5_" points="39.962,39.975 39.959,39.973 39.962,39.975 			"/>
		</defs>
		<defs>
			<path id="SVGID_6_" d="M23.695,23.894c0.002,0.002,0.005,0.002,0.01-0.003C23.698,23.891,23.695,23.891,23.695,23.894"/>
		</defs>
		<defs>
			<path id="SVGID_7_" d="M23.589,25.271c0.048,0.057,0,0.075-0.037,0.097C23.545,25.324,23.55,25.291,23.589,25.271"/>
		</defs>
		<defs>
			<path id="SVGID_8_" d="M22.837,12.634c0.239-0.195,0.561,0.317,0.406,0.487c-0.039,0.015-0.08,0.011-0.117,0.011
				c-0.072-0.004-0.145-0.009-0.225,0.059c-0.108-0.039-0.309-0.145-0.365-0.083c0.048-0.016,0.085,0.039,0.124,0.093
				c0.036,0.053,0.072,0.103,0.121,0.091c-0.059,0.046-0.021,0.097,0.017,0.152c0.02,0.027,0.044,0.059,0.053,0.087
				c0.018,0.085-0.079,0.184,0,0.273c-0.121,0.207-0.284,0.391-0.531,0.212c-0.333-0.385-0.708-1.23-1.089-0.835
				c0.284-0.068,0.675,0.745,0.671,0.982c-0.046,0.049-0.109,0.02-0.157-0.011c-0.063-0.035-0.111-0.068-0.133,0.009
				c0.118,0.098,0.259,0.124,0.38,0.267c0.007,0.189,0.02,0.375,0.036,0.57c-0.029,0.031-0.053,0.026-0.075,0.021
				c-0.026-0.004-0.051-0.004-0.077,0.02c-0.07-0.067-0.131-0.186-0.191-0.312c-0.029-0.046-0.051-0.092-0.073-0.134
				c-0.225,0.032-0.024,0.264-0.253,0.296c-0.081-0.166-0.168-0.274-0.255-0.388c-0.101-0.128-0.203-0.259-0.288-0.47
				c-0.141-0.036-0.273-0.157-0.416-0.167c-0.031-0.092-0.063-0.123-0.104-0.148c-0.034-0.024-0.058-0.042-0.087-0.108
				c-0.051,0.021-0.104,0.002-0.158-0.015c-0.079-0.027-0.152-0.055-0.204,0.055c0.03,0.071,0.059,0.093,0.092,0.115
				c0.04,0.021,0.078,0.042,0.1,0.135c-0.122,0.193,0.167,0.579,0.232,0.862c-0.089,0.14-0.299,0.143-0.496,0.228
				c-0.039-0.109-0.092-0.121-0.143-0.136c-0.048-0.015-0.098-0.029-0.135-0.114c-0.111,0.013-0.216-0.022-0.315-0.146
				c-0.021,0.054-0.059,0.107-0.087,0.163c-0.024-0.056-0.063-0.065-0.094-0.073c-0.049-0.004-0.092-0.016-0.122-0.118
				c-0.075,0.085-0.111-0.018-0.167-0.034c0.102,0.114,0.02,0.143-0.01,0.199c0.48,0.885,0.976,1.646,1.462,2.449
				c0.044,0.088-0.038,0.112,0.01,0.189c0.056-0.046,0.092-0.034,0.119,0.056c0.026,0.198-0.077,0.329,0.002,0.549
				c0.303,0.332,0.562,0.898,0.876,1.143c0.101,0.248,0.219,0.317,0.334,0.409c-0.014,0.092,0.242,0.352,0.361,0.446
				c-0.009,0.212,0.216,0.498,0.281,0.755c0.014,0.05-0.024,0.04,0.005,0.111c0.039,0.096,0.089,0.187,0.145,0.276
				c0.059,0.085,0.111,0.179,0.148,0.28c0.068,0.144,0.083,0.313,0.143,0.472c0.189,0.502,0.631,1.228,0.86,1.512
				c0.099,0.106,0.041,0.149,0.07,0.236c0.079,0.01,0.162,0.136,0.184,0.219c0.009,0.039,0.009,0.048,0.005,0.057
				c0.004,0.006,0.02,0.013,0.043,0.032c0.1,0.103,0.059,0.206,0.075,0.269c0.161,0.44,0.502,0.934,0.775,1.443
				c0.269,0.487,0.54,1.075,0.809,1.613c0.056,0.107,0.121,0.221,0.191,0.332c0.1,0.174,0.209,0.344,0.25,0.494
				c0.021,0.057-0.022,0.048,0.005,0.116c0.063,0.136,0.135,0.271,0.214,0.402c0.139,0.258,0.284,0.505,0.33,0.77
				c0.056,0.007,0.065,0.053,0.075,0.109c0.013,0.053,0.032,0.116,0.114,0.14c-0.036,0.089,0.056,0.238,0.146,0.383
				c0.05,0.092,0.109,0.182,0.133,0.254c0.042,0.042,0.088-0.012,0.112,0.097c0.055,0.066,0.051,0.094,0.041,0.125
				c0,0.027-0.005,0.046,0.014,0.085c0.015,0.058,0.032,0.048,0.052,0.046c0.026-0.005,0.05-0.01,0.062,0.048
				c-0.019,0.146,0.085,0.279,0.188,0.412c0.103,0.13,0.208,0.264,0.192,0.409c0.098,0.07,0.107,0.094,0.116,0.215
				c0.153,0.085,0.352,0.533,0.375,0.705c0.022,0.08,0.048,0.09,0.081,0.104c0.021,0.007,0.048,0.015,0.063,0.056
				c-0.056,0.021-0.025,0.055,0.005,0.116c0.094,0.232,0.249,0.506,0.409,0.775c0.141,0.239,0.288,0.496,0.396,0.724
				c0.203,0.121,0.346,0.661,0.556,0.765c-0.069,0.012-0.033,0.06,0,0.107c0.013,0.025,0.03,0.049,0.032,0.07
				c0.06,0.077,0.13,0.069,0.184,0.179c0.061,0.205,0.287,0.501,0.235,0.659c0.068,0.051,0.108,0.15,0.155,0.249
				c0.046,0.137,0.094,0.264,0.211,0.264c-0.063,0.027-0.013,0.101,0.021,0.156c0.016,0.021,0.023,0.039,0.028,0.055
				c0.107,0.248,0.235,0.437,0.365,0.676c0.042,0.027,0.051,0.012,0.095,0.063c0.252,0.329,0.487,0.858,0.659,1.179
				c0.089-0.045,0.147,0.147,0.222,0.2c0.078,0.002,0.152,0.045,0.208,0.163c0.097-0.06,0.184-0.019,0.264,0.057
				c0.193,0.307,0.295,0.603,0.434,0.865c0.05,0.096,0.106,0.182,0.167,0.267c0.07,0.117,0.141,0.229,0.189,0.333
				c0.009,0.041,0.071,0.15,0.009,0.195c-0.026,0.024-0.042-0.014-0.056-0.051c-0.015-0.039-0.032-0.076-0.051-0.05
				c0.049,0.075,0.056,0.121,0.065,0.162c0.004,0.048,0.004,0.075,0.078,0.115c0.012,0.203,0.1,0.441,0.195,0.682
				c-0.096,0.126-0.037,0.317-0.074,0.474c0.189,0.281,0.121,0.437,0.177,0.653c-0.075-0.208-0.157-0.314-0.218-0.387
				c-0.084-0.102-0.143-0.149-0.138-0.328c-0.065,0.087-0.101-0.053-0.153-0.076c-0.14-0.236-0.477-0.903-0.641-1.031
				c-0.028-0.051,0.044-0.058-0.002-0.117c-0.042-0.037-0.056-0.018-0.097-0.069c-0.162-0.216-0.305-0.499-0.453-0.779
				c-0.14-0.275-0.283-0.556-0.445-0.788c-0.063-0.001-0.036,0.042-0.012,0.081c0.024,0.037,0.035,0.068,0.012,0.081
				c-0.303-0.417-0.574-1.041-0.891-1.338c0.072-0.056-0.131-0.374-0.196-0.367c0.06-0.022,0.009-0.102-0.039-0.177
				c-0.029-0.044-0.058-0.089-0.064-0.123c-0.031-0.048-0.072,0.008-0.096-0.063c-0.24-0.432-0.465-0.91-0.73-1.151
				c0.038-0.05-0.021-0.153-0.078-0.255c-0.029-0.047-0.058-0.088-0.075-0.133c-0.026-0.046-0.068,0.012-0.092-0.067
				c-0.066-0.137-0.133-0.254-0.201-0.364c-0.084-0.146-0.16-0.271-0.211-0.4c-0.097-0.241-0.041-0.121-0.146-0.275
				c-0.063-0.092-0.124-0.215-0.186-0.342c-0.083-0.165-0.177-0.338-0.264-0.442c0.021-0.022-0.01-0.065-0.035-0.104
				c-0.029-0.05-0.055-0.104,0-0.114c-0.229-0.29-0.503-0.814-0.76-1.315c-0.141-0.266-0.273-0.528-0.394-0.747
				c-0.095-0.164-0.269-0.448-0.325-0.607c-0.021-0.055,0.028-0.046-0.005-0.119c-0.063-0.121-0.133-0.264-0.249-0.343
				c0.004-0.12-0.024-0.179-0.123-0.245c0.002-0.131-0.09-0.293-0.188-0.458c-0.035-0.068-0.079-0.143-0.115-0.208
				c-0.712-1.443-1.434-2.707-2.087-4.002c-0.02-0.065,0.081-0.072,0.006-0.155c-0.096-0.172-0.199-0.293-0.306-0.358
				c-0.179-0.245-0.332-0.644-0.526-0.818c0.013-0.129-0.038-0.085-0.167-0.306c-0.212-0.709-0.695-1.547-0.918-2.267
				c-0.21-0.174-0.387-0.581-0.595-0.779c-0.042-0.063-0.042-0.105-0.052-0.153c-0.005-0.061-0.012-0.12-0.082-0.208
				c-0.015-0.027-0.037-0.022-0.056-0.017c-0.017,0.004-0.034,0.011-0.051-0.013c-0.553-0.576-1.077-1.354-1.578-2.292
				c-0.042-0.029-0.094-0.022-0.131-0.134c-0.007-0.169-0.146-0.421-0.274-0.521c0.034-0.037,0.017-0.041,0.002-0.05
				c-0.015-0.013-0.032-0.03-0.024-0.094c-0.052-0.148-0.12-0.161-0.18-0.221c0.005-0.196-0.268-0.642-0.412-0.771
				c-0.014-0.041,0.066-0.105-0.028-0.058c-0.024-0.002,0.051,0.237,0.015,0.305c0.019,0.027,0.036,0.061,0.051,0.095
				c0.138,0.251,0.278,0.508,0.295,0.709c0.153,0.07,0.228,0.271,0.293,0.472c0.063,0.194,0.134,0.39,0.273,0.484
				c-0.064,0.026-0.005,0.112,0.046,0.193c0.037,0.049,0.066,0.095,0.074,0.133c0.171,0.037,0.263,0.454,0.278,0.518
				c0.065,0.203,0.264,0.436,0.343,0.53c0.078,0.092,0.129,0.21,0.194,0.327c0.075,0.145,0.155,0.291,0.262,0.412
				c0.036,0.039,0.048,0.009,0.09,0.07c0.203,0.253,0.411,0.508,0.576,0.793c0.051,0.05,0.106,0.057,0.15,0.117
				c0.109,0.141,0.072,0.218,0.102,0.303c0.053,0.177,0.204,0.404,0.254,0.574c0.011,0.055-0.029,0.046,0,0.116
				c0.153,0.358,0.433,0.859,0.67,1.37c0.208,0.424,0.574,1.104,0.785,1.356c0.038,0.036,0.055,0,0.099,0.061
				c0.068,0.099,0.17,0.271,0.199,0.368c0.012,0.054-0.029,0.044,0,0.12c0.24,0.536,0.53,1.06,0.828,1.59
				c0.228,0.404,0.448,0.811,0.656,1.24c0.411,0.842,0.9,1.69,1.337,2.549c0.024,0.05-0.043,0.056,0.004,0.114
				c0.068-0.007,0.042,0.072,0.068,0.122c0.155,0.333,0.658,1.281,0.835,1.448c0.012,0.052-0.065,0.065,0.017,0.145
				c0.228,0.245,0.371,0.567,0.508,0.902c0.104,0.243,0.208,0.491,0.366,0.721c0.036,0.033,0.048,0.014,0.089,0.063
				c0.145,0.202,0.285,0.474,0.443,0.763c0.133,0.273,0.279,0.547,0.436,0.78c0.031,0.039,0.077-0.009,0.094,0.068
				c0.136,0.273,0.284,0.503,0.421,0.732c0.145,0.235,0.291,0.467,0.426,0.74c0.029,0.045,0.075-0.008,0.097,0.065
				c0.894,1.508,1.838,2.67,2.702,4.347c0.051,0.03,0.097,0.027,0.137,0.085c0.05,0.168,0.131,0.294,0.214,0.431
				c0.058,0.089,0.115,0.17,0.162,0.269c0.21,0.154,0.355,0.44,0.521,0.763c0.069,0.143,0.155,0.296,0.242,0.445
				c0.159,0.127,0.272,0.376,0.497,0.6c0.105,0.107,0.469,0.846,0.469,0.929c0,0.012-0.014,0.008-0.027,0.006
				c-0.021-0.006-0.044-0.011-0.021,0.02c0.188,0.116,0.352,0.472,0.544,0.581c0.371,0.709,0.752,1.373,1.124,2.035
				c0.319,0.163,0.455,0.709,0.76,0.933c0.141,0.368,0.451,0.504,0.637,0.76c0.187,0.243,0.315,0.521,0.531,0.818
				c0.046-0.005,0.103-0.035,0.145,0l0.117,0.215c0.051-0.05,0.094-0.01,0.133,0.023c0.028,0.028,0.063,0.062,0.102,0.041
				c0.192,0.181,0.396,0.261,0.608,0.308l0.18,0.342c0.192,0.007,0.326,0.362,0.484,0.525c0.088-0.075,0.163-0.042,0.232-0.009
				c0.17,0.26,0.43,0.751,0.643,1.154c0.015,0,0.032,0.002,0.051,0.002c0.053,0.002,0.106,0.004,0.165-0.032
				c-0.145-0.229-0.406-0.706-0.429-0.92c-0.005-0.06-0.052-0.137,0.043-0.137c0.164,0.13,0.273,0.393,0.386,0.612
				c0.187,0.377,0.302,0.771,0.538,1.058c0-0.092-0.009-0.184,0.078-0.242c0.046,0.01,0.255,0.237,0.19,0.097
				c0.035-0.034,0.064,0.014,0.104,0.026c-0.201-0.283-0.284-0.607-0.326-0.772c-0.046-0.167-0.158-0.338-0.2-0.485
				c-0.016-0.053,0.025-0.045-0.004-0.114c-0.064-0.165-0.156-0.319-0.249-0.479c-0.103-0.176-0.214-0.354-0.269-0.547
				c-0.019-0.052,0.025-0.046-0.007-0.116c-0.062-0.143-0.146-0.291-0.229-0.43c-0.11-0.2-0.223-0.4-0.299-0.62
				c0.09-0.065,0.021-0.202,0.123-0.265c0.054,0.081,0.1,0.193,0.16,0.306c0.087,0.186,0.174,0.372,0.273,0.41
				c-0.058-0.135-0.141-0.274-0.221-0.414c-0.18-0.311-0.355-0.624-0.287-0.813c0.154,0.069,0.057,0.013,0.154-0.082
				c0.242,0.248,0.498,0.424,0.771,0.454c-0.005-0.215,0.328-0.266,0.496-0.388c0.096,0.081,0.19,0.154,0.267,0.33
				c0.085-0.091,0.133,0.018,0.19,0.099c0.105-0.035-0.093-0.22,0.014-0.253c0.044,0.016,0.088,0.01,0.138-0.027
				c0.015,0.056,0.047,0.095,0.083,0.134c0.019,0.028,0.046,0.056,0.066,0.104c0.046,0.097,0.028,0.267,0.09,0.222
				c0.025,0.109,0.053-0.028,0.076-0.035c0.011-0.003,0.034,0.004,0.057,0.012c0.047,0.016,0.1,0.027,0.13-0.035
				c0.093-0.018-0.04-0.141,0.069-0.151c0.023,0.049,0.05,0.106,0.093,0.069c0.062-0.067,0.03-0.187,0.138-0.237
				c-0.126-0.341-0.282-0.751-0.478-1.004c0.021-0.058,0.007-0.133-0.032-0.218c0.311-0.554-0.234-1.51-0.496-2.337
				c0.076-0.107-0.04-0.311-0.112-0.489c0.031-0.101-0.039-0.245-0.127-0.399c-0.019-0.26-0.277-0.642-0.406-0.968
				c-0.014-0.048,0.022-0.056-0.005-0.121c-0.051-0.172-0.184-0.377-0.225-0.54c-0.019-0.056,0.016-0.046-0.012-0.119
				c-0.092-0.253-0.262-0.494-0.329-0.727c-0.018-0.055,0.025-0.048-0.004-0.116c-0.105-0.268-0.269-0.532-0.402-0.813
				c-0.11-0.215-0.236-0.442-0.367-0.673c-0.212-0.371-0.424-0.739-0.55-1.079c-0.011-0.044,0.01-0.09,0.003-0.113
				c-0.003,0.006-0.074-0.029-0.099-0.07c-0.134-0.2-0.295-0.54-0.276-0.635c-0.066-0.02-0.07-0.039-0.117-0.096
				c-0.223-0.329-0.402-0.697-0.578-1.06c-0.116-0.235-0.23-0.471-0.356-0.687c-0.321-0.574-0.685-1.101-0.974-1.722
				c-0.025-0.044-0.069,0.008-0.095-0.063c-0.156-0.287-0.304-0.545-0.462-0.795c-0.198-0.334-0.391-0.668-0.588-1.053
				c-0.028-0.049-0.076,0.009-0.092-0.068c-0.056-0.146-0.147-0.287-0.239-0.432c-0.102-0.154-0.197-0.316-0.258-0.483
				c-0.012-0.058,0.03-0.045,0-0.12c-0.192-0.428-0.443-0.876-0.693-1.327c-0.138-0.23-0.262-0.458-0.389-0.695
				c-0.221-0.407-0.452-0.905-0.661-1.336c-0.025-0.056-0.061-0.116-0.102-0.175c-0.046-0.089-0.1-0.174-0.124-0.256
				c-0.021-0.052,0.024-0.042-0.004-0.112c-0.228-0.53-0.543-1.031-0.783-1.56c-0.017-0.046,0.027-0.05,0-0.114
				c-0.064-0.175-0.168-0.346-0.268-0.525c-0.127-0.206-0.25-0.415-0.314-0.623c-0.014-0.053,0.029-0.046,0-0.113
				c-0.128-0.28-0.286-0.564-0.434-0.848c-0.125-0.223-0.242-0.442-0.354-0.666c-0.135-0.274-0.297-0.574-0.475-0.889
				c-0.324-0.568-0.651-1.157-0.762-1.593c-0.033-0.131-0.107-0.295-0.171-0.422c-0.019-0.046-0.05-0.092-0.071-0.138
				c-0.134-0.251-0.278-0.492-0.416-0.729c-0.158-0.264-0.315-0.523-0.463-0.792c-0.157-0.061-0.294-0.352-0.431-0.596
				c-0.365-0.247-0.66-0.966-0.997-1.477c-1.036-0.807-1.986-2.201-2.947-3.496c-0.014-0.025-0.034-0.019-0.058-0.012
				c-0.017,0.004-0.034,0.009-0.043-0.013c0.02-0.067,0-0.084-0.024-0.113c-0.026-0.031-0.056-0.073-0.063-0.157
				c-0.324-0.371-0.623-0.888-0.957-1.179c-0.075,0-0.16,0.037-0.247,0.089c-0.039-0.135-0.104-0.1-0.167-0.067
				c-0.042,0.02-0.083,0.041-0.111,0.022c-0.075-0.211-0.191-0.153-0.278-0.286C22.974,12.55,22.822,12.553,22.837,12.634"/>
		</defs>
		<use xlink:href="#SVGID_5_"  overflow="visible" fill="#FFFFFF"/>
		<use xlink:href="#SVGID_6_"  overflow="visible" fill="#FFFFFF"/>
		<use xlink:href="#SVGID_7_"  overflow="visible" fill="#FFFFFF"/>
		<use xlink:href="#SVGID_8_"  overflow="visible" fill="#FFFFFF"/>
		<clipPath id="SVGID_9_">
			<use xlink:href="#SVGID_5_"  overflow="visible"/>
		</clipPath>
		<clipPath id="SVGID_10_" clip-path="url(#SVGID_9_)">
			<use xlink:href="#SVGID_6_"  overflow="visible"/>
		</clipPath>
		<clipPath id="SVGID_11_" clip-path="url(#SVGID_10_)">
			<use xlink:href="#SVGID_7_"  overflow="visible"/>
		</clipPath>
		<clipPath id="SVGID_12_" clip-path="url(#SVGID_11_)">
			<use xlink:href="#SVGID_8_"  overflow="visible"/>
		</clipPath>
		<polygon clip-path="url(#SVGID_12_)" fill="#FFFFFF" points="24.668,10.928 46.466,51.628 39.056,55.593 17.26,14.901 		"/>
	</g>
	<path fill="#FFFFFF" d="M55.929,33.271c-0.014-0.051,0.053-0.051,0.071-0.075c-0.345,0.041-0.666-0.041-0.834-0.083
		c-0.17-0.039-0.374-0.019-0.522-0.051c-0.054-0.012-0.031-0.043-0.101-0.05c-0.177-0.025-0.36-0.017-0.537-0.008
		c-0.209,0.008-0.413,0.015-0.611-0.022c-0.06-0.01-0.031-0.042-0.105-0.048c-0.163-0.011-0.328-0.007-0.494-0.007
		c-0.218,0.009-0.453,0.014-0.687-0.02c-0.014-0.107-0.166-0.111-0.171-0.23c0.095-0.012,0.224-0.006,0.348,0
		c0.205,0.009,0.411,0.022,0.484-0.052c-0.142-0.009-0.305-0.004-0.469,0c-0.354,0.013-0.714,0.021-0.853-0.129
		c0.134-0.103,0.042-0.042,0-0.183c0.341-0.092,0.614-0.234,0.768-0.459c-0.194-0.092-0.078-0.409-0.107-0.618
		c0.112-0.046,0.223-0.095,0.418-0.078c-0.042-0.116,0.085-0.111,0.177-0.128c0.017-0.108-0.234-0.02-0.213-0.128
		c0.024-0.027,0.045-0.07,0.036-0.128c0.06,0.012,0.106,0,0.156-0.013c0.037-0.009,0.075-0.019,0.122-0.019
		c0.115,0.004,0.248,0.106,0.243,0.031c0.107,0.029-0.005-0.063,0-0.08c0.005-0.041,0.133-0.1,0.071-0.18
		c0.021-0.086-0.141-0.031-0.108-0.127c0.053-0.002,0.12,0.002,0.108-0.054c-0.03-0.092-0.146-0.114-0.141-0.23
		c-0.36-0.053-0.795-0.104-1.109-0.048c-0.046-0.046-0.117-0.07-0.213-0.08c-0.334-0.538-1.439-0.508-2.291-0.67
		c-0.063-0.112-0.285-0.107-0.479-0.124c-0.08-0.081-0.243-0.087-0.422-0.083c-0.237-0.106-0.694-0.056-1.041-0.104
		c-0.05-0.006-0.042-0.04-0.105-0.052c-0.178-0.033-0.423-0.014-0.589-0.05c-0.057-0.012-0.032-0.04-0.107-0.048
		c-0.265-0.037-0.559-0.005-0.793-0.053c-0.057-0.013-0.034-0.043-0.107-0.051c-0.278-0.034-0.598-0.014-0.903-0.027
		c-0.244-0.007-0.508,0-0.771,0.005c-0.425,0.01-0.851,0.021-1.211-0.029c-0.046-0.009-0.076-0.053-0.102-0.053
		c0.021,0-0.046,0.046-0.103,0.053c-0.241,0.021-0.619,0.007-0.694-0.053c-0.046,0.046-0.067,0.044-0.139,0.053
		c-0.39,0.046-0.802,0.029-1.203,0.015c-0.264-0.015-0.524-0.021-0.776-0.015c-0.46,0.012-0.924,0.039-1.393,0.048
		c0.087-0.153,0.174-0.305,0.269-0.455c0.161-0.259,0.329-0.564,0.504-0.872c0.314-0.576,0.639-1.169,0.948-1.496
		c0.092-0.095,0.2-0.24,0.27-0.364c0.027-0.046,0.055-0.089,0.082-0.136c0.143-0.247,0.269-0.494,0.397-0.737
		c0.141-0.269,0.278-0.548,0.435-0.807c-0.04-0.167,0.14-0.437,0.275-0.681c0.021-0.442,0.472-1.078,0.732-1.625
		c0.137-1.308,0.816-2.853,1.406-4.351c0.03-0.053-0.05-0.056-0.024-0.101c0.066-0.018,0.071-0.044,0.087-0.081
		c0.009-0.036,0.022-0.077,0.096-0.133c0.144-0.475,0.426-0.997,0.496-1.436c-0.038-0.065-0.116-0.114-0.208-0.162
		c0.154-0.167-0.102-0.16-0.106-0.262c0.143-0.174,0.031-0.242,0.097-0.387c-0.065-0.015-0.151-0.138-0.214-0.08
		c0.287,0.094,0.028,0.641-0.202,0.602c-0.08-0.082-0.08-0.204-0.235-0.254c-0.02-0.116-0.044-0.344-0.125-0.354
		c0.081,0.063-0.092,0.233-0.029,0.308c-0.063-0.031-0.087,0.032-0.115,0.09c-0.014,0.037-0.027,0.07-0.051,0.092
		c-0.06,0.063-0.197,0.029-0.231,0.148c-0.239,0-0.482-0.041-0.457-0.344c0.151-0.488,0.67-1.251,0.138-1.362
		c0.204,0.203-0.276,0.968-0.48,1.084c-0.141-0.029-0.01-0.296-0.156-0.251c-0.021,0.162,0.037,0.286-0.029,0.461
		c-0.147,0.115-0.306,0.225-0.458,0.336c-0.083-0.016-0.036-0.086-0.11-0.105c0.014-0.095,0.079-0.213,0.152-0.334
		c0.029-0.043,0.055-0.085,0.08-0.131c-0.149-0.172-0.232,0.121-0.386-0.055c0.096-0.155,0.153-0.286,0.193-0.415
		c0.062-0.16,0.116-0.315,0.247-0.499c-0.046-0.138-0.004-0.313-0.07-0.441c0.062-0.077,0.062-0.123,0.066-0.169
		c0.004-0.039,0.004-0.076,0.05-0.128c-0.116-0.08-0.024-0.31-0.223-0.288c-0.055,0.061-0.055,0.1-0.055,0.138
		c0.005,0.046,0,0.09-0.056,0.16c-0.241-0.004-0.413,0.441-0.615,0.647c-0.163-0.004-0.275-0.18-0.453-0.3
		c0.069-0.092,0.051-0.144,0.041-0.191c-0.016-0.048-0.036-0.097,0.02-0.171c-0.069-0.09-0.093-0.202-0.035-0.343
		c-0.063,0.008-0.129,0.008-0.188,0.015c0.032-0.061,0.021-0.095,0.005-0.131c-0.014-0.042-0.027-0.082,0.041-0.167
		c-0.11-0.012-0.041-0.1-0.055-0.153c-0.046,0.146-0.113,0.09-0.17,0.097c-0.511,0.87-0.894,1.693-1.319,2.528
		c-0.045,0.083-0.112,0.024-0.153,0.111c0.066,0.018,0.071,0.063,0.016,0.134c-0.153,0.123-0.319,0.101-0.474,0.291
		c-0.114,0.429-0.451,0.953-0.503,1.349c-0.151,0.21-0.146,0.35-0.172,0.5c-0.087,0.033-0.167,0.39-0.188,0.538
		c-0.186,0.102-0.306,0.45-0.492,0.637c-0.036,0.039-0.046,0.005-0.096,0.065c-0.055,0.081-0.108,0.173-0.154,0.269
		c-0.05,0.09-0.097,0.184-0.156,0.271c-0.092,0.133-0.228,0.231-0.336,0.371c-0.32,0.424-0.7,1.179-0.821,1.527
		c-0.042,0.141-0.108,0.112-0.164,0.184c0.031,0.072-0.034,0.206-0.09,0.265c-0.031,0.031-0.041,0.039-0.052,0.039
		c0,0.007,0,0.021-0.005,0.053c-0.03,0.145-0.143,0.167-0.188,0.215c-0.289,0.362-0.528,0.908-0.813,1.414
		c-0.265,0.482-0.63,1.024-0.944,1.54c-0.066,0.103-0.125,0.216-0.184,0.332c-0.095,0.182-0.187,0.351-0.284,0.479
		c-0.041,0.042-0.061,0-0.096,0.063c-0.024,0.034-0.044,0.073-0.065,0.109c-0.075-0.148-0.146-0.293-0.224-0.441
		c-0.055-0.097-0.104-0.199-0.157-0.298c0.542-0.918,1.06-1.816,1.584-2.68c0.041-0.056,0.105,0.026,0.133-0.085
		c0.096-0.166,0.146-0.315,0.141-0.441c0.119-0.282,0.37-0.629,0.416-0.878c0.12-0.059,0.055-0.081,0.175-0.302
		c0.496-0.553,0.949-1.412,1.438-1.974c0.047-0.277,0.295-0.64,0.356-0.922c0.035-0.063,0.065-0.092,0.106-0.122
		c0.044-0.036,0.085-0.075,0.126-0.184c0.027-0.05-0.051-0.05-0.032-0.099c0.199-0.778,0.581-1.632,1.124-2.557
		c-0.005-0.05-0.03-0.092,0.041-0.177c0.133-0.094,0.273-0.349,0.291-0.508c0.049,0.008,0.044-0.007,0.044-0.026
		c0.005-0.018,0.007-0.044,0.076-0.072c0.099-0.114,0.066-0.179,0.094-0.262c0.166-0.097,0.397-0.568,0.43-0.755
		c0.027-0.039,0.129-0.003,0.037-0.063c-0.01-0.018-0.174,0.171-0.25,0.179c-0.019,0.031-0.035,0.063-0.056,0.09
		c-0.143,0.251-0.285,0.505-0.443,0.621c0.019,0.173-0.115,0.337-0.252,0.502c-0.132,0.162-0.261,0.316-0.261,0.489
		c-0.062-0.037-0.102,0.055-0.145,0.14c-0.028,0.053-0.05,0.101-0.073,0.133c0.05,0.165-0.255,0.46-0.296,0.51
		c-0.141,0.158-0.232,0.456-0.273,0.57c-0.035,0.113-0.106,0.223-0.173,0.339c-0.08,0.14-0.168,0.28-0.212,0.441
		c-0.018,0.05,0.019,0.046-0.004,0.114c-0.115,0.3-0.226,0.614-0.379,0.905c-0.01,0.063,0.009,0.113-0.015,0.186
		c-0.066,0.167-0.146,0.182-0.204,0.247c-0.124,0.14-0.238,0.387-0.36,0.514c-0.035,0.043-0.05,0.007-0.097,0.065
		c-0.228,0.322-0.496,0.824-0.807,1.298c-0.258,0.394-0.636,1.067-0.737,1.377c-0.02,0.059,0.026,0.049-0.01,0.119
		c-0.047,0.104-0.139,0.281-0.203,0.358c-0.037,0.044-0.056,0-0.097,0.066c-0.331,0.489-0.625,1.011-0.921,1.54
		c-0.168,0.3-0.343,0.605-0.522,0.908c-0.133-0.265-0.291-0.554-0.461-0.855c-0.324-0.571-0.651-1.159-0.762-1.595
		c-0.033-0.134-0.107-0.295-0.171-0.422c-0.019-0.046-0.047-0.09-0.071-0.14c-0.134-0.249-0.275-0.489-0.418-0.726
		c-0.156-0.264-0.315-0.526-0.461-0.792c-0.16-0.061-0.294-0.354-0.428-0.596c-0.37-0.249-0.665-0.966-1-1.477
		c-1.036-0.807-1.986-2.201-2.947-3.496c-0.031-0.051-0.077,0.019-0.101-0.025c0.02-0.064,0-0.084-0.027-0.116
		c-0.024-0.029-0.051-0.07-0.061-0.155c-0.324-0.371-0.62-0.888-0.954-1.179c-0.078-0.002-0.163,0.034-0.25,0.089
		c-0.06-0.218-0.193,0.005-0.281-0.043c-0.07-0.213-0.186-0.155-0.273-0.286c-0.051,0.052-0.198,0.054-0.186,0.136
		c0.236-0.195,0.561,0.317,0.409,0.49c-0.112,0.028-0.218-0.037-0.345,0.067c-0.106-0.039-0.309-0.147-0.365-0.083
		c0.092-0.034,0.153,0.207,0.242,0.187c-0.056,0.044-0.019,0.094,0.021,0.147c0.02,0.03,0.042,0.062,0.051,0.09
		c0.015,0.085-0.083,0.184,0,0.273c-0.121,0.207-0.286,0.391-0.533,0.212c-0.331-0.383-0.706-1.23-1.088-0.835
		c0.286-0.068,0.677,0.745,0.673,0.979c-0.102,0.107-0.25-0.149-0.291-0.002c0.116,0.102,0.259,0.126,0.38,0.267
		c0.01,0.191,0.018,0.377,0.036,0.572c-0.055,0.06-0.092-0.017-0.152,0.04c-0.07-0.065-0.133-0.186-0.189-0.312
		c-0.029-0.046-0.056-0.095-0.075-0.134c-0.225,0.032-0.022,0.267-0.253,0.296c-0.078-0.166-0.168-0.274-0.255-0.388
		c-0.101-0.128-0.203-0.259-0.291-0.467c-0.14-0.039-0.269-0.163-0.416-0.17c-0.029-0.092-0.061-0.121-0.102-0.148
		c-0.034-0.024-0.055-0.045-0.084-0.105c-0.133,0.05-0.277-0.144-0.367,0.036c0.03,0.076,0.061,0.098,0.094,0.114
		c0.037,0.024,0.078,0.045,0.103,0.139c-0.121,0.193,0.165,0.579,0.229,0.862c-0.092,0.138-0.299,0.143-0.499,0.225
		c-0.039-0.105-0.092-0.119-0.14-0.133c-0.046-0.015-0.098-0.029-0.133-0.116c-0.111,0.015-0.218-0.02-0.314-0.144
		c-0.026,0.054-0.062,0.107-0.087,0.163c-0.024-0.059-0.065-0.065-0.097-0.073c-0.052-0.007-0.092-0.016-0.122-0.118
		c-0.075,0.085-0.111-0.014-0.167-0.036c0.102,0.116,0.02,0.145-0.01,0.202c0.482,0.885,0.974,1.646,1.462,2.449
		c0.047,0.085-0.036,0.109,0.01,0.189c0.056-0.046,0.092-0.032,0.117,0.052c0.031,0.201-0.075,0.332,0.004,0.553
		c0.301,0.332,0.564,0.898,0.878,1.143c0.098,0.248,0.216,0.317,0.332,0.412c-0.014,0.089,0.242,0.349,0.361,0.444
		c-0.009,0.212,0.218,0.498,0.279,0.755c0.014,0.05-0.024,0.04,0.005,0.114c0.042,0.094,0.092,0.184,0.147,0.273
		c0.057,0.085,0.111,0.179,0.148,0.28c0.07,0.144,0.083,0.313,0.143,0.47c0.187,0.504,0.635,1.23,0.862,1.511
		c0.096,0.108,0.036,0.152,0.068,0.239c0.079,0.01,0.162,0.136,0.181,0.219c0.009,0.035,0.009,0.048,0.005,0.055
		c0.004,0.005,0.022,0.015,0.046,0.034c0.102,0.103,0.057,0.206,0.078,0.269c0.158,0.44,0.497,0.934,0.772,1.441
		c0.269,0.489,0.538,1.077,0.811,1.615c0.051,0.109,0.119,0.223,0.188,0.334c0.103,0.171,0.209,0.341,0.25,0.492
		c0.019,0.055-0.022,0.048,0.005,0.116c0.057,0.121,0.123,0.239,0.188,0.358c-0.075,0-0.149-0.004-0.225-0.004
		c-0.193,0-0.385-0.003-0.576-0.006c-0.55-1.058-1.097-2.063-1.599-3.06c-0.02-0.063,0.078-0.072,0.005-0.157
		c-0.098-0.17-0.199-0.293-0.306-0.356c-0.181-0.247-0.334-0.644-0.528-0.818c0.015-0.129-0.04-0.085-0.167-0.306
		c-0.212-0.709-0.697-1.547-0.92-2.265c-0.208-0.176-0.385-0.585-0.592-0.781c-0.042-0.063-0.042-0.105-0.052-0.153
		c-0.005-0.061-0.012-0.122-0.082-0.208c-0.03-0.054-0.076,0.016-0.107-0.03c-0.549-0.576-1.077-1.356-1.576-2.295
		c-0.043-0.026-0.1-0.022-0.131-0.131c-0.009-0.169-0.148-0.421-0.278-0.521c0.033-0.037,0.019-0.041,0.004-0.05
		c-0.012-0.013-0.032-0.03-0.021-0.094c-0.057-0.148-0.122-0.158-0.182-0.221c0.005-0.196-0.271-0.642-0.412-0.771
		c-0.011-0.041,0.066-0.105-0.026-0.058c-0.024-0.002,0.046,0.237,0.015,0.305c0.017,0.027,0.031,0.061,0.046,0.093
		c0.142,0.254,0.28,0.508,0.295,0.709c0.157,0.073,0.23,0.275,0.295,0.477c0.065,0.191,0.131,0.388,0.273,0.482
		c-0.064,0.026-0.005,0.112,0.046,0.193c0.037,0.049,0.066,0.095,0.076,0.133c0.169,0.037,0.259,0.454,0.276,0.518
		c0.065,0.203,0.264,0.436,0.343,0.53c0.078,0.092,0.129,0.21,0.194,0.33c0.078,0.143,0.153,0.291,0.26,0.409
		c0.04,0.039,0.05,0.009,0.092,0.07c0.203,0.253,0.411,0.508,0.578,0.793c0.047,0.05,0.107,0.057,0.148,0.117
		c0.106,0.141,0.072,0.215,0.102,0.3c0.055,0.179,0.204,0.404,0.254,0.577c0.015,0.055-0.032,0.046,0,0.116
		c0.153,0.358,0.436,0.859,0.67,1.37c0.208,0.424,0.574,1.104,0.787,1.354c0.036,0.039,0.051,0,0.097,0.063
		c0.065,0.101,0.167,0.271,0.199,0.368c0.015,0.054-0.031,0.046,0,0.12c0.24,0.536,0.533,1.063,0.828,1.587
		c0.228,0.407,0.448,0.816,0.656,1.243c0.002,0.004,0.004,0.009,0.007,0.014c-0.242-0.002-0.486-0.002-0.746,0.002
		c-0.666,0.013-1.336,0.028-1.779-0.077c-0.131-0.034-0.304-0.048-0.451-0.052c-0.045-0.003-0.107-0.003-0.152-0.003
		c-0.286,0-0.564,0.015-0.838,0.029c-0.305,0.014-0.61,0.029-0.915,0.026c-0.133,0.112-0.453,0.092-0.732,0.1
		c-0.392,0.205-1.164,0.13-1.769,0.181c-1.199,0.533-2.874,0.712-4.475,0.952c-0.056,0-0.022,0.072-0.073,0.077
		c-0.043-0.052-0.07-0.046-0.116-0.033c-0.032,0.007-0.081,0.014-0.162-0.019c-0.482,0.109-1.078,0.13-1.49,0.288
		c-0.035,0.066-0.045,0.155-0.035,0.252c-0.223-0.042-0.09,0.179-0.177,0.234c-0.223-0.036-0.223,0.089-0.38,0.1
		c0.019,0.07-0.042,0.206,0.034,0.232c-0.061-0.299,0.544-0.338,0.629-0.128c-0.034,0.117-0.141,0.179-0.106,0.336
		c-0.09,0.073-0.273,0.206-0.243,0.281c0.015-0.1,0.245-0.039,0.278-0.126c0.006,0.067,0.071,0.061,0.139,0.051
		c0.036-0.005,0.07-0.01,0.101,0c0.085,0.021,0.126,0.154,0.243,0.125c0.123,0.208,0.208,0.437-0.07,0.569
		c-0.492,0.111-1.417,0.043-1.25,0.565c0.081-0.282,0.986-0.245,1.185-0.126c0.046,0.138-0.249,0.155-0.143,0.256
		c0.152-0.062,0.234-0.169,0.416-0.205c0.172,0.078,0.352,0.157,0.522,0.23c0.028,0.08-0.055,0.077-0.038,0.154
		c-0.087,0.031-0.221,0.031-0.361,0.028c-0.054,0-0.109-0.008-0.157,0c-0.078,0.208,0.223,0.14,0.14,0.363
		c-0.177-0.009-0.314,0.015-0.458,0.038c-0.163,0.029-0.324,0.054-0.547,0.037c-0.097,0.105-0.271,0.156-0.346,0.281
		c-0.097-0.018-0.138,0.004-0.181,0.023c-0.037,0.016-0.068,0.034-0.139,0.029c-0.009,0.134-0.254,0.172-0.132,0.334
		c0.077,0.015,0.11-0.007,0.143-0.03c0.037-0.021,0.075-0.042,0.167-0.021c0.113,0.196,0.591,0.128,0.87,0.202
		c0.077,0.147-0.02,0.331-0.031,0.54c-0.117-0.014-0.15,0.025-0.192,0.063c-0.031,0.043-0.065,0.078-0.157,0.07
		c-0.045,0.108-0.123,0.183-0.28,0.204c0.036,0.049,0.073,0.101,0.111,0.153c-0.076-0.003-0.095,0.029-0.117,0.062
		c-0.029,0.032-0.055,0.069-0.167,0.046c0.05,0.102-0.061,0.091-0.107,0.122c0.158-0.027,0.138,0.055,0.177,0.105
		c1.008,0,1.906-0.081,2.846-0.126c0.092,0,0.077,0.078,0.173,0.075c-0.021-0.068,0.015-0.094,0.103-0.075
		c0.192,0.064,0.254,0.225,0.487,0.257c0.433-0.109,1.053-0.079,1.423-0.236c0.26,0.031,0.38-0.041,0.522-0.099
		c0.066,0.058,0.422-0.051,0.555-0.106c0.186,0.106,0.542,0.044,0.802,0.106c0.05,0.014,0.021,0.044,0.101,0.05
		c0.102,0.014,0.209,0.008,0.315,0c0.102-0.002,0.203-0.01,0.31,0c0.157,0.018,0.319,0.08,0.489,0.104
		c0.527,0.069,1.375,0.018,1.736-0.055c0.144-0.025,0.153,0.044,0.24,0.055c0.046-0.063,0.199-0.073,0.278-0.055
		c0.037,0.011,0.051,0.018,0.057,0.022c0.004-0.005,0.016-0.012,0.045-0.022c0.143-0.047,0.213,0.042,0.276,0.055
		c0.467,0.072,1.056,0.003,1.639,0c0.549-0.009,1.206,0.032,1.799,0.051c0.128,0.004,0.254-0.003,0.383-0.012
		c0.201-0.007,0.404-0.016,0.557,0.012c0.018,0.002,0.02,0.01,0.024,0.016c-0.109,0.245-0.223,0.49-0.336,0.734
		c-1.034-0.008-2.039-0.006-3.024-0.029c-0.06-0.012-0.027-0.101-0.138-0.077c-0.184,0.004-0.346,0.037-0.448,0.101
		c-0.309,0.042-0.731-0.006-0.973,0.08c-0.109-0.078-0.092-0.007-0.342,0c-0.731-0.148-1.702-0.116-2.438-0.26
		c-0.254,0.1-0.697,0.067-0.966,0.156c-0.07,0.005-0.116-0.013-0.162-0.029c-0.057-0.021-0.117-0.044-0.223-0.021
		c-0.055,0-0.017,0.069-0.073,0.074c-0.772,0.216-1.702,0.315-2.772,0.313c-0.046,0.03-0.062,0.076-0.174,0.052
		c-0.153-0.069-0.441-0.069-0.589,0c-0.017-0.045-0.026-0.033-0.041-0.026c-0.015,0.005-0.045,0.015-0.097-0.025
		c-0.158-0.025-0.193,0.03-0.283,0.052c-0.169-0.097-0.693-0.063-0.87,0c-0.045-0.006-0.061-0.106-0.067,0
		c-0.01,0.02,0.229,0.067,0.276,0.127h0.106c0.291,0,0.579,0,0.763,0.079c0.14-0.105,0.348-0.073,0.564-0.036
		c0.197,0.034,0.4,0.065,0.553-0.018c-0.006,0.069,0.092,0.06,0.193,0.054c0.052-0.006,0.116-0.01,0.153,0
		c0.107-0.129,0.523-0.014,0.588,0c0.209,0.039,0.509-0.032,0.625-0.054c0.118-0.023,0.245-0.02,0.383-0.018
		c0.157,0.002,0.33,0.005,0.487-0.03c0.055-0.016,0.031-0.041,0.101-0.055c0.321-0.054,0.647-0.115,0.977-0.127
		c0.056-0.02,0.092-0.069,0.167-0.081c0.179-0.026,0.235,0.034,0.317,0.056c0.181,0.037,0.456,0.013,0.625,0.051
		c0.056,0.017,0.029,0.044,0.107,0.052c0.389,0.038,0.963,0.024,1.523,0.05c0.472,0.025,1.239,0.021,1.563-0.05
		c0.059-0.012,0.027-0.045,0.103-0.052c0.123-0.012,0.317-0.021,0.418,0c0.054,0.01,0.025,0.044,0.1,0.052
		c0.59,0.043,1.189,0.033,1.799,0.024c0.334-0.005,0.671-0.003,1.007,0.002c-0.281,0.598-0.582,1.202-0.966,1.843
		c0,0.051,0.024,0.092,0,0.153c-0.122,0.137-0.189,0.271-0.254,0.414c-0.041,0.097-0.087,0.193-0.148,0.283
		c-0.015,0.259-0.182,0.53-0.365,0.84c-0.083,0.138-0.172,0.29-0.26,0.442c-0.024,0.206-0.172,0.429-0.245,0.74
		c-0.033,0.146-0.467,0.844-0.538,0.891c-0.031,0.012-0.022-0.081-0.05-0.029c0,0.229-0.213,0.544-0.204,0.766
		c-0.407,0.692-0.777,1.359-1.143,2.026c0.037,0.358-0.365,0.764-0.392,1.143c-0.233,0.313-0.187,0.647-0.301,0.943
		c-0.116,0.283-0.278,0.544-0.426,0.877c0.036,0.038,0.087,0.067,0.083,0.125l-0.119,0.212c0.123,0.035-0.01,0.184,0.068,0.241
		c-0.056,0.253-0.017,0.464,0.055,0.673l-0.193,0.331c0.092,0.16-0.139,0.466-0.189,0.691c0.109,0.034,0.119,0.113,0.129,0.19
		c-0.129,0.283-0.411,0.764-0.64,1.158c0.039,0.061,0.051,0.126,0.141,0.16c0.116-0.238,0.382-0.719,0.544-0.842
		c0.055-0.037,0.097-0.116,0.147-0.04c-0.031,0.209-0.184,0.441-0.322,0.656c-0.223,0.348-0.491,0.658-0.607,1.012
		c0.075-0.048,0.147-0.113,0.237-0.063c0.016,0.052-0.061,0.337,0.022,0.216c0.055,0.017,0.024,0.065,0.038,0.093
		c0.133-0.316,0.367-0.553,0.48-0.677c0.116-0.129,0.203-0.314,0.304-0.424c0.039-0.042,0.052-0.004,0.1-0.065
		c0.104-0.143,0.192-0.303,0.275-0.462c0.092-0.184,0.189-0.365,0.319-0.518c0.032-0.046,0.051,0,0.098-0.065
		c0.092-0.133,0.167-0.276,0.25-0.426c0.101-0.195,0.212-0.397,0.361-0.584c0.101,0.042,0.186-0.089,0.288-0.031
		c-0.039,0.089-0.107,0.19-0.172,0.295c-0.116,0.176-0.223,0.349-0.199,0.451c0.077-0.119,0.153-0.264,0.235-0.411
		c0.167-0.31,0.334-0.623,0.532-0.666c0.02,0.166,0.015,0.06,0.158,0.09c-0.087,0.338-0.101,0.646,0.019,0.89
		c0.175-0.114,0.393,0.144,0.591,0.218c-0.027,0.121-0.036,0.24-0.147,0.401c0.121,0.026,0.06,0.126,0.026,0.215
		c0.085,0.07,0.136-0.187,0.218-0.116c0.009,0.041,0.033,0.074,0.092,0.098c-0.042,0.038-0.054,0.089-0.068,0.137
		c-0.01,0.038-0.024,0.074-0.051,0.113c-0.055,0.097-0.208,0.163-0.143,0.195c-0.079,0.08,0.059,0.031,0.068,0.042
		c0.034,0.026,0.02,0.167,0.122,0.155c0.06,0.06,0.101-0.112,0.157-0.03c-0.025,0.047-0.056,0.103-0.005,0.115
		c0.098,0.019,0.177-0.064,0.274-0.005c0.225-0.287,0.488-0.634,0.6-0.935c0.065-0.019,0.122-0.068,0.168-0.146
		c0.636-0.027,1.165-0.994,1.729-1.651c0.13,0.005,0.242-0.192,0.355-0.352c0.102-0.027,0.187-0.167,0.274-0.324
		c0.208-0.148,0.389-0.566,0.61-0.85c0.033-0.041,0.055-0.014,0.096-0.065c0.116-0.139,0.223-0.354,0.339-0.481
		c0.042-0.042,0.052-0.005,0.098-0.066c0.167-0.222,0.285-0.487,0.448-0.666c0.038-0.044,0.051-0.005,0.09-0.064
		c0.173-0.229,0.317-0.511,0.475-0.772c0.129-0.205,0.258-0.438,0.39-0.668c0.203-0.372,0.402-0.751,0.625-1.031
		c0.032-0.037,0.087-0.044,0.097-0.062c-0.005,0.015-0.015-0.07,0.01-0.118c0.101-0.223,0.294-0.537,0.392-0.576
		c-0.02-0.06-0.004-0.076,0.024-0.143c0.152-0.363,0.373-0.711,0.586-1.05c0.14-0.221,0.278-0.439,0.406-0.667
		c0.131-0.245,0.251-0.491,0.378-0.739c0.368,0.569,0.732,1.155,1.083,1.835c0.048,0.03,0.1,0.027,0.135,0.083
		c0.052,0.17,0.133,0.299,0.213,0.427c0.06,0.093,0.118,0.176,0.167,0.275c0.208,0.153,0.352,0.438,0.519,0.762
		c0.073,0.141,0.152,0.296,0.24,0.445c0.161,0.127,0.274,0.376,0.499,0.6c0.105,0.107,0.472,0.846,0.472,0.929
		c0,0.025-0.083-0.028-0.051,0.025c0.188,0.119,0.352,0.471,0.542,0.578c0.373,0.71,0.754,1.376,1.124,2.04
		c0.318,0.161,0.457,0.711,0.762,0.931c0.139,0.368,0.449,0.504,0.64,0.758c0.184,0.245,0.314,0.522,0.525,0.82
		c0.049-0.005,0.105-0.034,0.146,0l0.119,0.215c0.094-0.089,0.146,0.099,0.236,0.065c0.193,0.18,0.397,0.26,0.606,0.307l0.177,0.342
		c0.193,0.007,0.331,0.362,0.487,0.525c0.088-0.075,0.163-0.042,0.228-0.009c0.175,0.262,0.435,0.751,0.647,1.154
		c0.069-0.004,0.141,0.018,0.219-0.033c-0.149-0.227-0.407-0.703-0.432-0.917c-0.005-0.058-0.052-0.137,0.043-0.137
		c0.166,0.13,0.276,0.393,0.389,0.617c0.184,0.372,0.299,0.766,0.537,1.053c0-0.092-0.011-0.187,0.076-0.242
		c0.046,0.01,0.255,0.237,0.19,0.095c0.037-0.032,0.064,0.016,0.106,0.028c-0.204-0.283-0.285-0.607-0.332-0.772
		c-0.041-0.167-0.153-0.338-0.199-0.485c-0.014-0.053,0.027-0.045-0.005-0.114c-0.06-0.163-0.151-0.319-0.243-0.476
		c-0.105-0.179-0.214-0.356-0.273-0.55c-0.017-0.052,0.03-0.046-0.007-0.116c-0.06-0.146-0.143-0.291-0.228-0.433
		c-0.11-0.199-0.221-0.397-0.299-0.617c0.087-0.065,0.019-0.202,0.12-0.265c0.057,0.081,0.103,0.197,0.163,0.309
		c0.087,0.183,0.174,0.369,0.275,0.407c-0.06-0.135-0.143-0.274-0.226-0.414c-0.177-0.311-0.353-0.621-0.282-0.813
		c0.152,0.069,0.055,0.014,0.152-0.085c0.245,0.251,0.498,0.423,0.771,0.457c-0.005-0.215,0.33-0.264,0.496-0.388
		c0.092,0.081,0.19,0.154,0.267,0.33c0.085-0.091,0.131,0.018,0.192,0.099c0.106-0.035-0.091-0.217,0.012-0.253
		c0.044,0.016,0.09,0.01,0.136-0.027c0.014,0.056,0.051,0.093,0.082,0.134c0.02,0.028,0.052,0.058,0.069,0.104
		c0.046,0.097,0.028,0.265,0.092,0.222c0.025,0.109,0.051-0.028,0.071-0.035c0.042-0.011,0.147,0.074,0.189-0.023
		c0.091-0.018-0.037-0.138,0.069-0.151c0.021,0.046,0.047,0.106,0.093,0.069c0.06-0.064,0.03-0.187,0.138-0.234
		c-0.124-0.344-0.286-0.754-0.479-1.007c0.023-0.058,0.012-0.131-0.03-0.218c0.311-0.554-0.234-1.51-0.498-2.337
		c0.078-0.107-0.034-0.311-0.11-0.489c0.031-0.099-0.037-0.245-0.127-0.399c-0.016-0.26-0.28-0.639-0.406-0.968
		c-0.012-0.048,0.018-0.056-0.005-0.121c-0.051-0.172-0.184-0.374-0.225-0.542c-0.019-0.054,0.016-0.044-0.01-0.115
		c-0.092-0.255-0.264-0.496-0.331-0.729c-0.02-0.055,0.025-0.048-0.004-0.116c-0.105-0.268-0.267-0.532-0.402-0.81
		c-0.11-0.218-0.239-0.445-0.369-0.677c-0.21-0.37-0.422-0.74-0.545-1.078c-0.014-0.046,0.009-0.092,0-0.115
		c0.009,0.016-0.071-0.023-0.097-0.068c-0.136-0.2-0.297-0.539-0.278-0.64c-0.066-0.013-0.073-0.034-0.117-0.094
		c-0.22-0.326-0.402-0.694-0.581-1.055c-0.117-0.238-0.228-0.473-0.354-0.688c-0.221-0.393-0.451-0.772-0.674-1.161
		c1.044-0.103,2.077-0.211,3.276-0.192c0.046-0.026,0.069-0.068,0.139-0.076c0.176,0.038,0.332,0.022,0.481,0.012
		c0.102-0.012,0.209-0.017,0.317-0.012c0.232-0.114,0.552-0.107,0.912-0.099c0.163,0.002,0.338,0.002,0.515-0.007
		c0.184-0.076,0.457-0.057,0.758-0.153c0.151-0.044,0.97-0.015,1.041,0.027c0.025,0.011-0.062,0.052,0,0.052
		c0.198-0.116,0.579-0.086,0.768-0.206c0.797,0.009,1.564-0.005,2.327-0.025c0.295-0.209,0.841-0.064,1.184-0.236
		c0.39,0.051,0.656-0.151,0.967-0.205c0.306-0.044,0.611-0.031,0.972-0.075c0.022-0.047,0.022-0.104,0.069-0.129h0.248
		c-0.037-0.126,0.158-0.083,0.167-0.178c0.251-0.089,0.411-0.227,0.565-0.39h0.375c0.096-0.161,0.478-0.109,0.693-0.177
		c-0.018-0.112,0.037-0.161,0.104-0.207c0.311-0.031,0.864-0.025,1.321-0.021c0.03-0.066,0.082-0.118,0.071-0.215
		c-0.265,0.023-0.807,0.033-1.011-0.049c-0.061-0.024-0.147-0.024-0.102-0.1c0.197-0.084,0.478-0.061,0.73-0.053
		c0.412,0.016,0.813,0.094,1.179,0.027c-0.08-0.045-0.165-0.082-0.179-0.185C55.791,33.356,56.082,33.283,55.929,33.271z
		 M33.63,21.873c-0.021,0.07-0.062,0.04-0.102,0.021C33.564,21.862,33.594,21.847,33.63,21.873z M25.901,35.612
		c-0.029-0.058-0.05-0.01-0.07,0.032c-0.02,0.037-0.037,0.065-0.061,0.051c0.024-0.059,0.063-0.126,0.092-0.188
		c0.094,0,0.187,0.004,0.284,0c0.143-0.001,0.28-0.004,0.414,0.004c-0.022,0.038-0.053,0.087-0.073,0.121
		c0.085,0.051-0.036,0.195-0.045,0.288c0.034,0.071,0.039,0.146-0.037,0.261c0.02,0.009,0.022,0.028,0.035,0.041
		c-0.295-0.007-0.577-0.009-0.862-0.013C25.696,36.01,25.821,35.811,25.901,35.612z M25.989,37.264
		c-0.051,0.093-0.097,0.182-0.138,0.276c-0.057,0.123-0.118,0.241-0.188,0.338c-0.022,0.032-0.086,0.142-0.152,0.112
		c-0.041-0.005-0.01-0.042,0.01-0.074c0.028-0.033,0.05-0.063,0.015-0.073c-0.035,0.085-0.07,0.119-0.097,0.147
		c-0.039,0.032-0.066,0.043-0.061,0.124c-0.163,0.117-0.325,0.313-0.482,0.526c-0.153-0.021-0.286,0.143-0.438,0.188
		c-0.135,0.311-0.306,0.332-0.456,0.494c0.131-0.176,0.183-0.299,0.209-0.392c0.043-0.126,0.055-0.2,0.208-0.285
		c-0.109-0.016-0.007-0.121-0.017-0.174c0.124-0.246,0.518-0.883,0.54-1.092c0.03-0.043,0.076,0.009,0.098-0.062
		c0.004-0.056-0.018-0.053,0.004-0.117c0.077-0.194,0.206-0.4,0.327-0.608c0.036,0,0.073-0.003,0.109,0
		c0.301,0.009,0.61,0.004,0.915,0.007C26.262,36.837,26.114,37.056,25.989,37.264z M33.119,42.266
		c-0.082-0.104-0.143-0.149-0.138-0.328c-0.065,0.087-0.101-0.053-0.153-0.076c-0.143-0.236-0.477-0.903-0.639-1.034
		c-0.031-0.048,0.044-0.057-0.005-0.116c-0.042-0.033-0.054-0.012-0.097-0.067c-0.138-0.182-0.258-0.42-0.383-0.657
		c0.131-0.247,0.262-0.497,0.421-0.742c0.024-0.049-0.041-0.055,0.011-0.116c0.024-0.04,0.042-0.081,0.064-0.122
		c0,0.001,0.003,0.001,0.003,0.001c0.193,0.307,0.295,0.603,0.436,0.867c0.046,0.094,0.107,0.18,0.165,0.265
		c0.07,0.119,0.141,0.229,0.188,0.335C33,40.511,33.064,40.622,33,40.667c-0.023,0.024-0.039-0.014-0.05-0.051
		c-0.015-0.039-0.035-0.076-0.057-0.05c0.051,0.075,0.061,0.121,0.068,0.162c0.004,0.048,0.004,0.075,0.08,0.115
		c0.01,0.203,0.098,0.441,0.193,0.685c-0.096,0.122-0.04,0.316-0.072,0.471c0.189,0.275,0.119,0.437,0.175,0.653
		C33.265,42.444,33.18,42.338,33.119,42.266z M41.53,35.751c-0.13,0.026-0.203,0.052-0.36-0.037
		c0.046,0.103-0.092,0.067-0.133,0.104c-0.278,0.015-1.024-0.008-1.218,0.074c-0.056-0.002-0.027-0.063-0.102-0.051
		c-0.053,0.021-0.036,0.042-0.107,0.051c-0.265,0.042-0.579,0.032-0.905,0.029c-0.306-0.004-0.621-0.009-0.898,0.023
		c-0.032,0.058,0.019,0.053,0.064,0.053c0.041-0.002,0.078-0.005,0.078,0.022c-0.064,0.01-0.143,0.008-0.214,0.014
		c-0.058-0.109-0.122-0.211-0.174-0.328c-0.028-0.044-0.069,0.008-0.095-0.063c-0.044-0.079-0.08-0.141-0.125-0.216
		c0.063,0.002,0.139,0.004,0.191,0.004c0-0.099,0.19-0.063,0.273-0.101c0.036-0.067,0.105-0.111,0.239-0.102
		c-0.003-0.12,0.075-0.172,0.177-0.212c0.36-0.024,0.671,0.021,0.977,0.028c0.096,0,0.197-0.009,0.3-0.017
		c0.141-0.012,0.27-0.023,0.389-0.012c0.042,0.007,0.164,0.007,0.176,0.078c0.015,0.035-0.026,0.033-0.067,0.026
		c-0.046-0.005-0.085-0.007-0.076,0.024c0.098-0.009,0.144,0,0.182,0.018c0.041,0.015,0.069,0.033,0.134-0.018
		c0.182,0.09,0.437,0.129,0.7,0.156c0.058,0.143,0.26,0.18,0.377,0.285c0.34-0.039,0.445,0.099,0.657,0.152
		C41.758,35.709,41.627,35.732,41.53,35.751z"/>
	<g>
		<defs>
			<polyline id="SVGID_13_" points="29.766,43.541 29.766,43.537 29.766,43.541 			"/>
		</defs>
		<defs>
			<polyline id="SVGID_14_" points="34.854,21.239 34.861,21.243 34.857,21.239 34.854,21.239 			"/>
		</defs>
		<defs>
			<path id="SVGID_15_" d="M33.528,21.891c0.036-0.028,0.063-0.043,0.104-0.018c-0.012,0.031-0.029,0.045-0.047,0.045
				S33.55,21.901,33.528,21.891"/>
		</defs>
		<defs>
			<path id="SVGID_16_" d="M40.056,12.167c-0.014-0.002-0.03-0.002-0.041-0.002c-0.508,0.87-0.892,1.693-1.316,2.528
				c-0.051,0.079-0.113,0.024-0.159,0.111c0.071,0.018,0.074,0.063,0.017,0.134c-0.149,0.121-0.319,0.101-0.469,0.291
				c-0.117,0.429-0.458,0.953-0.503,1.349c-0.157,0.21-0.149,0.35-0.175,0.5c-0.089,0.033-0.165,0.39-0.19,0.538
				c-0.182,0.102-0.304,0.45-0.486,0.637c-0.04,0.041-0.052,0.005-0.1,0.065c-0.058,0.083-0.104,0.173-0.156,0.267
				c-0.048,0.09-0.097,0.187-0.151,0.273c-0.095,0.131-0.228,0.231-0.334,0.374c-0.328,0.424-0.702,1.176-0.824,1.523
				c-0.046,0.143-0.11,0.112-0.166,0.186c0.028,0.075-0.032,0.206-0.09,0.265c-0.029,0.031-0.038,0.039-0.05,0.039
				c0,0.007,0,0.019-0.004,0.053c-0.035,0.145-0.147,0.164-0.191,0.215c-0.289,0.362-0.526,0.908-0.811,1.414
				c-0.27,0.482-0.63,1.024-0.945,1.54c-0.07,0.099-0.126,0.214-0.186,0.33c-0.095,0.184-0.187,0.353-0.286,0.481
				c-0.036,0.044-0.055,0-0.094,0.065c-0.09,0.121-0.158,0.249-0.233,0.39c-0.141,0.255-0.278,0.504-0.482,0.681
				c0.027,0.053-0.008,0.09-0.045,0.126c-0.039,0.039-0.084,0.085-0.061,0.169c-0.097,0.018-0.171,0.175-0.251,0.327
				c-0.044,0.095-0.09,0.187-0.146,0.252c-0.013,0.051,0.058,0.062-0.024,0.143c-0.02,0.081-0.054,0.092-0.082,0.099
				c-0.025,0.01-0.046,0.018-0.066,0.054c-0.042,0.043-0.029,0.057-0.017,0.075c0.021,0.017,0.037,0.032-0.007,0.072
				c-0.134,0.059-0.192,0.221-0.25,0.38c-0.056,0.157-0.116,0.317-0.245,0.38c-0.004,0.113-0.02,0.137-0.122,0.208
				c0.011,0.179-0.271,0.583-0.404,0.693c-0.052,0.056-0.045,0.087-0.042,0.119c0,0.024,0.01,0.053-0.015,0.082
				c-0.042-0.029-0.057,0.012-0.097,0.067c-0.143,0.214-0.291,0.482-0.441,0.758c-0.133,0.245-0.271,0.506-0.409,0.717
				c0.002,0.237-0.375,0.645-0.358,0.872c-0.037-0.052-0.065,0.002-0.092,0.06c-0.01,0.028-0.027,0.049-0.042,0.063
				c-0.032,0.092,0.014,0.15-0.05,0.255c-0.151,0.157-0.274,0.505-0.437,0.546c-0.012,0.083-0.072,0.174-0.136,0.263
				c-0.089,0.109-0.169,0.224-0.109,0.321c-0.056-0.044-0.094,0.036-0.118,0.097c-0.018,0.021-0.024,0.04-0.029,0.054
				c-0.163,0.22-0.254,0.427-0.385,0.664c-0.006,0.052,0.019,0.051-0.006,0.112c-0.155,0.395-0.474,0.871-0.656,1.19
				c0.081,0.051-0.039,0.197-0.05,0.29c0.033,0.065,0.039,0.146-0.032,0.261c0.103,0.054,0.107,0.149,0.093,0.253
				c-0.157,0.326-0.356,0.569-0.511,0.829c-0.051,0.093-0.095,0.182-0.14,0.274c-0.052,0.125-0.117,0.243-0.183,0.34
				c-0.026,0.029-0.086,0.141-0.154,0.112c-0.041-0.005-0.013-0.039,0.007-0.076c0.029-0.031,0.055-0.064,0.017-0.071
				c-0.037,0.088-0.068,0.119-0.1,0.147c-0.036,0.029-0.06,0.046-0.055,0.122c-0.167,0.124-0.325,0.313-0.487,0.528
				c-0.147-0.021-0.286,0.141-0.433,0.185c-0.136,0.313-0.308,0.336-0.455,0.498c0.128-0.176,0.176-0.302,0.208-0.392
				c0.043-0.126,0.052-0.2,0.208-0.285c-0.114-0.016-0.012-0.121-0.022-0.176c0.128-0.246,0.518-0.881,0.544-1.09
				c0.03-0.043,0.07,0.009,0.098-0.062c0.005-0.056-0.022-0.053,0.005-0.117c0.101-0.252,0.262-0.52,0.424-0.796
				c0.16-0.266,0.326-0.532,0.431-0.796c-0.029-0.056-0.053-0.008-0.072,0.034c-0.02,0.034-0.032,0.065-0.056,0.051
				c0.187-0.477,0.574-1.039,0.662-1.462c0.087,0.035,0.254-0.311,0.208-0.361c0.056,0.042,0.094-0.044,0.131-0.129
				c0.026-0.046,0.045-0.093,0.067-0.114c0.024-0.049-0.041-0.059,0.007-0.115c0.24-0.427,0.524-0.874,0.588-1.229
				c0.068,0.005,0.129-0.099,0.182-0.205c0.024-0.044,0.046-0.095,0.071-0.128c0.029-0.047-0.041-0.053,0.012-0.114
				c0.075-0.128,0.138-0.25,0.199-0.363c0.079-0.147,0.154-0.28,0.236-0.392c0.146-0.203,0.071-0.095,0.148-0.266
				c0.048-0.104,0.121-0.223,0.197-0.339c0.094-0.164,0.193-0.325,0.234-0.456c0.03,0.006,0.056-0.036,0.08-0.084
				c0.026-0.051,0.051-0.106,0.094-0.061c0.116-0.352,0.419-0.857,0.712-1.339c0.152-0.261,0.302-0.51,0.421-0.729
				c0.093-0.167,0.245-0.467,0.349-0.605c0.037-0.041,0.062,0.004,0.097-0.061c0.081-0.116,0.158-0.25,0.16-0.389
				c0.109-0.056,0.141-0.122,0.141-0.24c0.118-0.058,0.206-0.226,0.298-0.392c0.031-0.074,0.077-0.151,0.116-0.214
				c0.85-1.36,1.547-2.639,2.297-3.878c0.017-0.025,0.042-0.022,0.061-0.022c0.028,0,0.057,0.005,0.078-0.063
				c0.09-0.168,0.146-0.317,0.138-0.439c0.117-0.285,0.37-0.629,0.419-0.881c0.115-0.055,0.05-0.081,0.174-0.302
				c0.492-0.555,0.949-1.41,1.438-1.974c0.041-0.279,0.287-0.64,0.352-0.922c0.034-0.063,0.067-0.092,0.108-0.122
				c0.041-0.036,0.087-0.075,0.123-0.184c0.032-0.05-0.045-0.05-0.029-0.101c0.199-0.775,0.584-1.63,1.126-2.557
				c-0.005-0.048-0.032-0.089,0.037-0.175c0.138-0.094,0.277-0.349,0.291-0.508c0.051,0.008,0.044-0.007,0.044-0.026
				c0.007-0.018,0.012-0.044,0.078-0.072c0.096-0.114,0.069-0.179,0.094-0.262c0.168-0.099,0.4-0.568,0.428-0.755
				c0.032-0.037,0.134-0.003,0.041-0.063c-0.009-0.02-0.176,0.171-0.255,0.179c-0.016,0.028-0.032,0.063-0.051,0.09
				c-0.146,0.249-0.284,0.505-0.448,0.621c0.023,0.173-0.114,0.337-0.247,0.502c-0.134,0.162-0.265,0.316-0.265,0.489
				c-0.055-0.037-0.102,0.055-0.143,0.14c-0.025,0.056-0.048,0.101-0.076,0.133c0.056,0.165-0.252,0.46-0.296,0.51
				c-0.141,0.158-0.229,0.458-0.271,0.572c-0.04,0.111-0.104,0.221-0.175,0.337c-0.081,0.138-0.168,0.28-0.21,0.441
				c-0.018,0.05,0.017,0.048-0.004,0.114c-0.112,0.3-0.224,0.614-0.382,0.905c-0.009,0.063,0.01,0.113-0.012,0.186
				c-0.062,0.167-0.145,0.182-0.204,0.247c-0.127,0.14-0.238,0.387-0.358,0.514c-0.039,0.045-0.055,0.004-0.097,0.065
				c-0.228,0.322-0.5,0.824-0.811,1.296c-0.254,0.396-0.632,1.067-0.735,1.379c-0.018,0.057,0.024,0.049-0.008,0.119
				c-0.051,0.104-0.143,0.281-0.203,0.356c-0.041,0.046-0.061,0-0.099,0.068c-0.328,0.491-0.623,1.011-0.921,1.54
				c-0.222,0.402-0.452,0.809-0.702,1.212c-0.5,0.794-0.961,1.651-1.462,2.484c-0.027,0.043-0.071-0.009-0.096,0.065
				c0.037,0.048-0.042,0.073-0.074,0.119c-0.199,0.307-0.732,1.235-0.783,1.472c-0.041,0.037-0.09-0.017-0.118,0.092
				c-0.08,0.325-0.286,0.608-0.494,0.906c-0.155,0.213-0.311,0.438-0.424,0.687c-0.005,0.054,0.02,0.054-0.005,0.116
				c-0.087,0.228-0.255,0.494-0.419,0.772c-0.149,0.259-0.312,0.527-0.423,0.783c-0.024,0.053,0.044,0.06-0.012,0.12
				c-0.16,0.254-0.279,0.5-0.395,0.742c-0.128,0.249-0.25,0.491-0.407,0.752c-0.026,0.049,0.042,0.057-0.004,0.117
				c-0.811,1.551-1.296,2.966-2.267,4.588c0,0.051,0.024,0.092,0,0.153c-0.121,0.137-0.192,0.273-0.26,0.414
				c-0.035,0.097-0.086,0.19-0.142,0.283c-0.015,0.259-0.187,0.53-0.37,0.84c-0.083,0.138-0.167,0.29-0.255,0.442
				c-0.024,0.206-0.174,0.429-0.25,0.74c-0.033,0.148-0.462,0.843-0.538,0.891c-0.011,0.004-0.017-0.006-0.021-0.021
				c-0.005-0.016-0.009-0.038-0.024-0.004c0,0.222-0.213,0.54-0.204,0.762c-0.409,0.692-0.782,1.355-1.143,2.026
				c0.035,0.358-0.37,0.764-0.392,1.143c-0.235,0.313-0.192,0.647-0.301,0.941c-0.116,0.285-0.283,0.546-0.426,0.879
				c0.032,0.038,0.087,0.067,0.083,0.125l-0.123,0.215c0.128,0.032-0.01,0.179,0.068,0.238c-0.052,0.253-0.012,0.464,0.06,0.673
				l-0.196,0.336c0.094,0.155-0.141,0.461-0.187,0.687c0.104,0.034,0.116,0.113,0.124,0.19c-0.124,0.285-0.409,0.764-0.637,1.156
				c0.037,0.063,0.053,0.13,0.139,0.162c0.118-0.235,0.383-0.719,0.549-0.842c0.053-0.037,0.097-0.116,0.143-0.04
				c-0.026,0.208-0.184,0.441-0.317,0.656c-0.223,0.348-0.496,0.658-0.612,1.014c0.08-0.05,0.152-0.115,0.237-0.065
				c0.022,0.051-0.056,0.337,0.027,0.216c0.05,0.017,0.021,0.065,0.038,0.093c0.128-0.316,0.364-0.551,0.48-0.679
				c0.117-0.127,0.204-0.315,0.305-0.423c0.039-0.041,0.046-0.005,0.098-0.064c0.105-0.143,0.19-0.303,0.273-0.462
				c0.095-0.187,0.189-0.365,0.322-0.518c0.035-0.046,0.054,0,0.094-0.065c0.093-0.133,0.173-0.276,0.255-0.428
				c0.101-0.19,0.21-0.394,0.358-0.582c0.048,0.019,0.091,0,0.135-0.018c0.048-0.022,0.097-0.044,0.155-0.014
				c-0.039,0.089-0.106,0.19-0.174,0.295c-0.116,0.176-0.223,0.349-0.201,0.451c0.077-0.117,0.158-0.264,0.24-0.408
				c0.164-0.311,0.333-0.623,0.532-0.669c0.01,0.107,0.013,0.098,0.054,0.09c0.019-0.007,0.051-0.012,0.099,0
				c-0.087,0.336-0.099,0.646,0.02,0.891c0.175-0.111,0.395,0.143,0.593,0.217c-0.024,0.121-0.036,0.24-0.147,0.401
				c0.123,0.026,0.06,0.126,0.024,0.215c0.042,0.036,0.077-0.01,0.109-0.056c0.033-0.046,0.067-0.095,0.109-0.061
				c0.01,0.041,0.034,0.071,0.092,0.098c-0.037,0.038-0.052,0.084-0.068,0.137c-0.01,0.035-0.024,0.076-0.049,0.113
				c-0.058,0.097-0.206,0.165-0.145,0.195c-0.053,0.058-0.007,0.05,0.034,0.044c0.014-0.006,0.029-0.008,0.033-0.006
				c0.035,0.03,0.02,0.171,0.124,0.159c0.028,0.028,0.053,0.007,0.075-0.019c0.026-0.027,0.053-0.052,0.083-0.009
				c-0.025,0.044-0.059,0.1-0.003,0.114c0.039,0.008,0.076,0,0.114-0.009c0.049-0.016,0.1-0.033,0.155,0.004
				c0.231-0.289,0.489-0.641,0.603-0.936c0.068-0.021,0.12-0.069,0.17-0.146c0.634-0.027,1.163-0.989,1.727-1.651
				c0.133,0.005,0.245-0.192,0.355-0.352c0.1-0.029,0.187-0.167,0.277-0.324c0.208-0.148,0.385-0.566,0.61-0.852
				c0.031-0.039,0.051-0.012,0.097-0.063c0.114-0.139,0.223-0.354,0.336-0.481c0.042-0.042,0.048-0.005,0.1-0.066
				c0.162-0.222,0.285-0.487,0.442-0.666c0.039-0.039,0.056-0.005,0.095-0.064c0.173-0.229,0.314-0.511,0.474-0.772
				c0.131-0.205,0.254-0.438,0.385-0.671c0.203-0.369,0.401-0.748,0.625-1.031c0.034-0.034,0.084-0.039,0.097-0.055
				c-0.005,0-0.013-0.079,0.01-0.119c0.102-0.224,0.295-0.538,0.392-0.579c-0.017-0.06-0.005-0.076,0.024-0.143
				c0.158-0.363,0.374-0.711,0.588-1.049c0.138-0.222,0.281-0.442,0.404-0.668c0.311-0.575,0.569-1.164,0.94-1.739
				c0.024-0.049-0.037-0.055,0.009-0.116c0.164-0.273,0.299-0.543,0.432-0.808c0.179-0.339,0.361-0.684,0.583-1.049
				c0.026-0.052-0.044-0.056,0.007-0.117c0.099-0.125,0.169-0.279,0.242-0.433c0.082-0.165,0.167-0.332,0.278-0.472
				c0.039-0.044,0.059,0,0.099-0.062c0.265-0.394,0.51-0.843,0.761-1.296c0.124-0.231,0.255-0.464,0.384-0.688
				c0.232-0.402,0.537-0.863,0.79-1.272c0.032-0.048,0.067-0.113,0.095-0.171c0.044-0.09,0.096-0.177,0.153-0.245
				c0.034-0.043,0.047-0.004,0.09-0.064c0.328-0.476,0.597-1.002,0.917-1.481c0.031-0.039,0.051-0.006,0.095-0.059
				c0.111-0.153,0.206-0.334,0.302-0.516c0.113-0.206,0.224-0.423,0.361-0.588c0.042-0.042,0.056,0,0.097-0.065
				c0.175-0.252,0.331-0.531,0.493-0.816c0.125-0.211,0.249-0.432,0.387-0.642c0.158-0.259,0.329-0.564,0.503-0.872
				c0.315-0.576,0.639-1.172,0.949-1.496c0.091-0.098,0.199-0.24,0.264-0.364c0.032-0.048,0.058-0.089,0.083-0.138
				c0.146-0.244,0.272-0.492,0.397-0.738c0.141-0.266,0.282-0.545,0.435-0.803c-0.035-0.167,0.144-0.437,0.277-0.681
				c0.019-0.44,0.469-1.08,0.732-1.625c0.137-1.308,0.818-2.85,1.409-4.351c0.027-0.053-0.053-0.056-0.03-0.101
				c0.069-0.018,0.074-0.044,0.088-0.081c0.008-0.036,0.022-0.077,0.096-0.133c0.147-0.477,0.425-0.997,0.498-1.436
				c-0.036-0.067-0.116-0.114-0.208-0.16c0.149-0.169-0.102-0.162-0.106-0.264c0.141-0.174,0.028-0.242,0.1-0.387
				c-0.071-0.015-0.158-0.138-0.217-0.08c0.289,0.094,0.025,0.641-0.199,0.6c-0.085-0.077-0.085-0.203-0.238-0.25
				c-0.021-0.118-0.047-0.346-0.127-0.358c0.08,0.065-0.093,0.235-0.029,0.31c-0.063-0.031-0.088,0.032-0.113,0.09
				c-0.012,0.037-0.025,0.07-0.053,0.09c-0.058,0.063-0.195,0.028-0.231,0.152c-0.235,0-0.479-0.043-0.455-0.349
				c0.151-0.486,0.668-1.251,0.135-1.36c0.202,0.203-0.275,0.968-0.479,1.086c-0.141-0.031-0.01-0.298-0.152-0.253
				c-0.02,0.164,0.032,0.286-0.029,0.461c-0.149,0.115-0.306,0.223-0.46,0.336c-0.085-0.016-0.036-0.086-0.11-0.105
				c0.012-0.095,0.081-0.213,0.154-0.334c0.027-0.043,0.05-0.085,0.075-0.131c-0.073-0.082-0.131-0.055-0.188-0.026
				c-0.06,0.029-0.119,0.06-0.195-0.032c0.099-0.154,0.153-0.283,0.195-0.414c0.057-0.157,0.114-0.313,0.247-0.496
				c-0.05-0.138-0.004-0.313-0.075-0.441c0.066-0.077,0.066-0.123,0.071-0.169c0.004-0.039,0.004-0.076,0.046-0.128
				c-0.117-0.08-0.022-0.31-0.221-0.288c-0.053,0.063-0.053,0.1-0.053,0.138c0.005,0.046,0,0.09-0.058,0.16
				c-0.241-0.004-0.415,0.441-0.617,0.647c-0.159-0.004-0.273-0.18-0.451-0.302c0.067-0.09,0.048-0.142,0.041-0.189
				c-0.018-0.048-0.036-0.099,0.017-0.169c-0.064-0.092-0.09-0.201-0.034-0.345c-0.063,0.01-0.122,0.01-0.187,0.015
				c0.034-0.061,0.019-0.095,0.005-0.133c-0.017-0.04-0.027-0.077,0.043-0.162c-0.109-0.015-0.043-0.102-0.06-0.158
				C40.15,12.177,40.102,12.172,40.056,12.167"/>
		</defs>
		<use xlink:href="#SVGID_13_"  overflow="visible" fill="#FFFFFF"/>
		<use xlink:href="#SVGID_14_"  overflow="visible" fill="#FFFFFF"/>
		<use xlink:href="#SVGID_15_"  overflow="visible" fill="#FFFFFF"/>
		<use xlink:href="#SVGID_16_"  overflow="visible" fill="#FFFFFF"/>
		<clipPath id="SVGID_17_">
			<use xlink:href="#SVGID_13_"  overflow="visible"/>
		</clipPath>
		<clipPath id="SVGID_18_" clip-path="url(#SVGID_17_)">
			<use xlink:href="#SVGID_14_"  overflow="visible"/>
		</clipPath>
		<clipPath id="SVGID_19_" clip-path="url(#SVGID_18_)">
			<use xlink:href="#SVGID_15_"  overflow="visible"/>
		</clipPath>
		<clipPath id="SVGID_20_" clip-path="url(#SVGID_19_)">
			<use xlink:href="#SVGID_16_"  overflow="visible"/>
		</clipPath>
		<polygon clip-path="url(#SVGID_20_)" fill="#FFFFFF" points="46.385,15.228 23.296,55.204 16.02,51.003 39.102,11.027 		"/>
	</g>
</g>
</svg>
