<?xml version="1.0" encoding="utf-8"?>
<!-- Generator: Adobe Illustrator 15.0.2, SVG Export Plug-In . SVG Version: 6.00 Build 0)  -->
<!DOCTYPE svg PUBLIC "-//W3C//DTD SVG 1.1//EN" "http://www.w3.org/Graphics/SVG/1.1/DTD/svg11.dtd">
<svg version="1.1" id="Ebene_1" xmlns="http://www.w3.org/2000/svg" xmlns:xlink="http://www.w3.org/1999/xlink" x="0px" y="0px"
	 width="64px" height="64px" viewBox="0 0 64 64" enable-background="new 0 0 64 64" xml:space="preserve">
<rect fill="#00AAEE" width="64" height="64"/>
<path fill="#FFFFFF" d="M52.444,36.672c0.313-1.433,0.479-2.916,0.479-4.441c0-11.427-9.266-20.691-20.693-20.691
	c-1.207,0-2.389,0.104-3.539,0.303C26.843,10.677,24.654,10,22.308,10c-6.627,0-12,5.374-12,12c0,2.216,0.602,4.288,1.65,6.069
	c-0.275,1.345-0.419,2.737-0.419,4.161c0,11.428,9.264,20.694,20.692,20.694c1.293,0,2.56-0.12,3.79-0.347
	C37.71,53.484,39.64,54,41.693,54c6.627,0,11.999-5.373,11.999-11.999C53.692,40.087,53.241,38.277,52.444,36.672z M42.843,42.121
	c-0.957,1.354-2.371,2.427-4.203,3.189c-1.815,0.754-3.989,1.137-6.467,1.137c-2.972,0-5.464-0.522-7.409-1.556
	c-1.389-0.749-2.536-1.766-3.405-3.021c-0.88-1.269-1.326-2.526-1.326-3.738c0-0.759,0.291-1.417,0.863-1.954
	c0.567-0.534,1.293-0.803,2.16-0.803c0.71,0,1.323,0.214,1.822,0.634c0.476,0.404,0.886,1,1.213,1.771
	c0.367,0.839,0.767,1.55,1.188,2.107c0.406,0.538,0.99,0.991,1.736,1.343c0.75,0.354,1.761,0.533,3.005,0.533
	c1.71,0,3.113-0.364,4.167-1.084c1.03-0.704,1.532-1.549,1.532-2.583c0-0.815-0.262-1.459-0.8-1.962
	c-0.563-0.527-1.307-0.938-2.207-1.218c-0.94-0.293-2.218-0.61-3.796-0.939c-2.147-0.461-3.973-1.006-5.423-1.625
	c-1.484-0.631-2.681-1.505-3.555-2.601c-0.889-1.111-1.339-2.506-1.339-4.148c0-1.563,0.473-2.971,1.405-4.188
	c0.925-1.207,2.277-2.145,4.017-2.788c1.717-0.635,3.759-0.957,6.07-0.957c1.849,0,3.474,0.213,4.829,0.636
	c1.363,0.424,2.515,0.998,3.417,1.703c0.909,0.712,1.587,1.473,2.012,2.263c0.429,0.797,0.648,1.592,0.648,2.359
	c0,0.74-0.286,1.413-0.849,1.997c-0.568,0.59-1.283,0.889-2.127,0.889c-0.766,0-1.365-0.186-1.782-0.556
	c-0.387-0.342-0.788-0.875-1.233-1.644c-0.517-0.98-1.142-1.753-1.858-2.298c-0.694-0.529-1.855-0.798-3.453-0.798
	c-1.483,0-2.689,0.299-3.586,0.886c-0.862,0.565-1.282,1.216-1.282,1.983c0,0.471,0.135,0.867,0.412,1.206
	c0.295,0.358,0.71,0.673,1.235,0.936c0.543,0.273,1.104,0.492,1.665,0.646c0.575,0.161,1.541,0.396,2.864,0.702
	c1.673,0.36,3.215,0.761,4.574,1.198c1.377,0.439,2.569,0.984,3.539,1.616c0.992,0.646,1.775,1.475,2.333,2.462
	c0.558,0.993,0.842,2.219,0.842,3.645C44.291,39.208,43.805,40.761,42.843,42.121z"/>
</svg>
