<?xml version="1.0" encoding="utf-8"?>
<!-- Generator: Adobe Illustrator 15.0.2, SVG Export Plug-In . SVG Version: 6.00 Build 0)  -->
<!DOCTYPE svg PUBLIC "-//W3C//DTD SVG 1.1//EN" "http://www.w3.org/Graphics/SVG/1.1/DTD/svg11.dtd">
<svg version="1.1" id="Ebene_1" xmlns="http://www.w3.org/2000/svg" xmlns:xlink="http://www.w3.org/1999/xlink" x="0px" y="0px"
	 width="64px" height="64px" viewBox="0 0 64 64" enable-background="new 0 0 64 64" xml:space="preserve">
<rect fill="#006688" width="64" height="64"/>
<g>
	<path fill-rule="evenodd" clip-rule="evenodd" fill="#FFFFFF" d="M39.907,20.631c-0.306,0.491-1.178,0.417-1.97,0.422
		c-0.337,0.481-0.454,1.176-0.519,1.926c1.591,0.458,3.243,0.854,4.554,1.595c0.56-0.366,0.909-0.935,1.268-1.502
		c-0.158-0.321-0.38-0.44-0.422-0.798c-0.138-1.224,1.252-2.135,2.397-1.643c0.373,0.159,0.806,0.639,1.126,1.032
		c0.359,0.441,0.723,0.998,0.654,1.503c-0.461,0.627-1.846,0.312-2.673,0.235c-0.308,0.68-0.707,1.269-1.13,1.83
		c0.84,0.679,1.729,1.31,2.208,2.348c2.897-0.671,5.775-1.363,8.832-1.878c0.238-0.873,0.37-1.952,0.935-2.487
		c0.509-0.477,1.528-0.463,2.119,0c0.637,0.502,1.563,2.145,1.69,3.146c0.378,3.074-4.178,3.23-4.696,0.61
		c-2.842,0.555-5.714,1.084-8.458,1.737c0.201,1.07,0.217,2.575-0.137,3.477c0.66,0.04,1.305,0.098,1.923,0.187
		c0.273-0.69,1.401-1.6,2.303-0.94c0.798,0.586,0.548,2.74,0.138,3.57c-0.118,0.238-0.496,0.66-0.703,0.75
		c-1.27,0.535-2.306-0.83-2.065-2.297c-0.581-0.189-1.255-0.285-1.976-0.334c-0.273,0.232-0.428,0.533-0.654,0.797
		c-0.638,0.736-1.456,1.389-2.352,1.93c0.351,0.59,0.88,1,1.363,1.457c1.145-0.895,3.139-0.443,2.821,1.125
		c-0.051,0.248-0.341,0.621-0.518,0.799c-0.303,0.301-0.837,0.686-1.363,0.939c-0.508,0.24-1.392,0.486-1.785,0.049
		c-0.441-0.504-0.06-1.498,0.189-1.977c-0.164-0.383-0.499-0.641-0.75-0.936c-0.261-0.305-0.516-0.615-0.755-0.939
		c-1.401,0.787-2.847,1.537-4.369,2.207c0.227,0.701,0.548,1.301,0.893,1.875c1.368-0.693,2.764-0.053,2.446,1.316
		c-0.216,0.936-1.944,1.977-3.006,2.113c-0.616,0.082-1.299-0.072-1.41-0.607c-0.189-0.895,0.576-1.703,0.987-2.16
		c-0.385-0.596-0.74-1.201-0.893-2.023c-1.723,0.676-3.438,1.355-5.449,1.736c-0.124,0.568-0.216,1.162-0.234,1.834
		c0.43,0.17,0.69,0.082,0.984,0.238c0.597,0.309,0.666,1.078,0.423,1.643c-0.223,0.523-1.044,1.244-1.734,1.363
		c-0.947,0.148-1.892-0.262-2.304-0.805c-0.707-0.92,0.121-2.008,1.175-2.16c-0.051-0.639-0.065-1.287,0.048-1.875
		c-1.931,0.078-3.563-0.137-4.791-0.75c-0.567,0.463-0.953,1.113-1.315,1.779c0.097,0.469,0.932,0.889,0.705,1.691
		c-0.077,0.277-0.553,0.475-0.845,0.518c-0.896,0.133-2.512-0.316-2.961-0.797c-0.711-0.76-0.402-2.516,0.705-2.68
		c0.592-0.082,0.836,0.145,1.268,0.375c0.393-0.51,0.703-1.113,1.08-1.643c-1.14-1.127-2.197-2.338-2.676-4.131
		c-3.845,1.227-7.634,2.514-11.084,4.131c-0.019,0.771-0.045,1.234-0.327,1.691c-0.663,1.092-2.524,1.373-3.429,0.375
		c-0.346-0.381-0.429-0.975-0.375-1.779c0.084-1.268,0.666-2.615,1.313-3.197c0.166-0.148,0.495-0.34,0.658-0.375
		c1.114-0.217,1.432,0.656,1.737,1.363c3.752-1.15,7.456-2.348,11.272-3.428c-0.281-3.005,1.059-4.796,2.348-6.39
		c-0.341-0.519-0.838-0.883-1.175-1.407c-0.915,0.693-2.837,0.776-3.051-0.565c-0.192-1.193,0.726-3.068,1.782-3.381
		c0.494-0.145,1.106-0.023,1.503,0.282c0.516,0.395,1.319,2.008,0.518,2.911c0.431,0.415,0.913,0.777,1.36,1.175
		c1.423-1.225,2.994-2.298,4.839-3.101c-0.085-0.587-0.189-1.156-0.234-1.783c-1.222,0.012-2.089-0.233-2.113-1.314
		c-0.021-0.867,0.641-1.614,1.455-1.738c1.137-0.174,2.65,0.269,2.818,1.128c0.213,1.081-0.778,1.285-1.363,1.69
		c0.189,0.561,0.473,1.03,0.706,1.547c1.757-0.622,4.578-0.802,6.763-0.422c0.263-0.519,0.365-1.199,0.471-1.878
		c-0.624-0.157-1.204-0.372-1.315-0.938c-0.213-1.079,1.107-2.251,2.345-1.881c0.442,0.131,0.986,0.727,1.315,1.08
		C39.376,19.658,39.781,20.104,39.907,20.631z M40.003,27.909c-0.53,0.602-1.066,1.623-1.036,2.396
		c0.024,0.482,0.368,1.07,0.66,1.407c0.487,0.565,1.498,1.217,2.209,0.987c0.663-0.218,0.845-1.545,0.845-2.725
		c0-1.455-0.187-2.988-1.506-2.817C40.708,27.22,40.27,27.604,40.003,27.909z M27.98,27.723c-1.044,0.513-1.711,2.041-1.551,3.615
		c0.086,0.845,0.55,1.909,1.033,2.675c0.834,1.322,2.11,2.25,4.038,1.691c1.451-0.42,2.823-1.895,3.52-3.238
		c0.23-0.438,0.546-1.116,0.519-1.458c-0.026-0.403-0.571-0.924-0.988-1.313c-1.278-1.202-3.348-2.462-5.539-2.208
		C28.626,27.529,28.26,27.58,27.98,27.723z"/>
</g>
</svg>
