<?xml version="1.0" encoding="utf-8"?>
<!-- Generator: Adobe Illustrator 15.0.2, SVG Export Plug-In . SVG Version: 6.00 Build 0)  -->
<!DOCTYPE svg PUBLIC "-//W3C//DTD SVG 1.1//EN" "http://www.w3.org/Graphics/SVG/1.1/DTD/svg11.dtd">
<svg version="1.1" id="Twitter" xmlns="http://www.w3.org/2000/svg" xmlns:xlink="http://www.w3.org/1999/xlink" x="0px" y="0px"
	 width="64px" height="64px" viewBox="0 0 64 64" enable-background="new 0 0 64 64" xml:space="preserve">
<rect fill="#CC3333" width="64" height="64"/>
<path fill-rule="evenodd" clip-rule="evenodd" fill="#FFFFFF" d="M28.574,8h-2.717l-1.832,7.046L22.117,8H19.29
	c0.566,1.663,1.156,3.335,1.723,5c0.861,2.502,1.399,4.389,1.642,5.677v7.267h2.688v-7.267L28.574,8z M35.756,21.616v-4.684
	c0-1.429-0.244-2.474-0.752-3.15c-0.671-0.913-1.612-1.371-2.827-1.371c-1.207,0-2.151,0.458-2.821,1.371
	c-0.515,0.676-0.759,1.721-0.759,3.15v4.684c0,1.42,0.244,2.474,0.759,3.145c0.67,0.911,1.614,1.369,2.821,1.369
	c1.215,0,2.156-0.458,2.827-1.369C35.512,24.089,35.756,23.036,35.756,21.616z M33.332,22.071c0,1.237-0.374,1.856-1.155,1.856
	c-0.782,0-1.157-0.619-1.157-1.856v-5.625c0-1.237,0.375-1.853,1.157-1.853c0.781,0,1.155,0.616,1.155,1.853V22.071z M44.717,25.944
	V12.573h-2.424v10.22c-0.536,0.759-1.046,1.135-1.529,1.135c-0.326,0-0.516-0.191-0.568-0.567c-0.029-0.078-0.029-0.374-0.029-0.943
	v-9.844H37.75v10.573c0,0.943,0.081,1.584,0.215,1.988c0.242,0.678,0.78,0.995,1.561,0.995c0.883,0,1.804-0.538,2.768-1.645v1.459
	H44.717z"/>
<g>
	<path fill-rule="evenodd" clip-rule="evenodd" fill="#FFFFFF" d="M45.289,39.521c-0.801,0-1.203,0.612-1.203,1.836v1.224h2.398
		v-1.224C46.484,40.133,46.082,39.521,45.289,39.521z"/>
	<path fill-rule="evenodd" clip-rule="evenodd" fill="#FFFFFF" d="M36.391,39.521c-0.395,0-0.793,0.188-1.193,0.583v8.066
		c0.4,0.4,0.799,0.589,1.193,0.589c0.691,0,1.043-0.589,1.043-1.784v-5.647C37.434,40.133,37.082,39.521,36.391,39.521z"/>
	<path fill-rule="evenodd" clip-rule="evenodd" fill="#FFFFFF" d="M51.15,32.793c-0.484-2.108-2.211-3.664-4.287-3.896
		c-4.92-0.551-9.9-0.553-14.858-0.551c-4.958-0.002-9.938,0-14.857,0.551c-2.078,0.232-3.803,1.788-4.287,3.896
		c-0.692,3.006-0.699,6.285-0.699,9.379c0,3.094,0,6.374,0.691,9.379c0.485,2.11,2.209,3.666,4.287,3.897
		c4.919,0.55,9.899,0.553,14.858,0.55c4.958,0.003,9.936,0,14.858-0.55c2.076-0.231,3.803-1.787,4.287-3.897
		c0.691-3.005,0.695-6.285,0.695-9.379C51.838,39.078,51.842,35.8,51.15,32.793z M23.478,35.497h-2.872v15.26h-2.667v-15.26h-2.821
		v-2.5h8.359V35.497z M30.723,50.757h-2.399v-1.443c-0.952,1.093-1.858,1.626-2.739,1.626c-0.773,0-1.306-0.314-1.545-0.985
		c-0.132-0.4-0.212-1.031-0.212-1.967V37.524h2.396v9.742c0,0.561,0,0.854,0.022,0.932c0.058,0.372,0.24,0.561,0.562,0.561
		c0.48,0,0.983-0.37,1.516-1.122V37.524h2.399V50.757z M39.832,46.785c0,1.225-0.082,2.105-0.242,2.666
		c-0.32,0.985-0.961,1.488-1.916,1.488c-0.854,0-1.678-0.475-2.477-1.466v1.283h-2.399v-17.76h2.399v5.801
		c0.773-0.953,1.594-1.436,2.477-1.436c0.955,0,1.596,0.502,1.916,1.494c0.16,0.532,0.242,1.407,0.242,2.659V46.785z M48.881,44.577
		h-4.795v2.346c0,1.225,0.402,1.836,1.225,1.836c0.59,0,0.936-0.32,1.072-0.962c0.021-0.13,0.051-0.662,0.051-1.624h2.447v0.351
		c0,0.771-0.029,1.304-0.051,1.544c-0.08,0.531-0.27,1.012-0.561,1.438c-0.664,0.96-1.646,1.435-2.898,1.435
		c-1.256,0-2.211-0.453-2.902-1.355c-0.51-0.661-0.771-1.707-0.771-3.112v-4.636c0-1.414,0.232-2.447,0.742-3.117
		c0.691-0.906,1.646-1.356,2.871-1.356c1.203,0,2.158,0.45,2.828,1.356c0.502,0.67,0.742,1.703,0.742,3.117V44.577z"/>
</g>
</svg>
