<?xml version="1.0" encoding="utf-8"?>
<!-- Generator: Adobe Illustrator 15.0.2, SVG Export Plug-In . SVG Version: 6.00 Build 0)  -->
<!DOCTYPE svg PUBLIC "-//W3C//DTD SVG 1.1//EN" "http://www.w3.org/Graphics/SVG/1.1/DTD/svg11.dtd">
<svg version="1.1" id="Twitter" xmlns="http://www.w3.org/2000/svg" xmlns:xlink="http://www.w3.org/1999/xlink" x="0px" y="0px"
	 width="64px" height="64px" viewBox="0 0 64 64" enable-background="new 0 0 64 64" xml:space="preserve">
<rect fill="#33AADD" width="64" height="64"/>
<path fill="#FFFFFF" d="M53.5,18.664c-1.58,0.703-3.283,1.176-5.064,1.39c1.817-1.092,3.218-2.822,3.875-4.882
	c-1.702,1.011-3.59,1.745-5.599,2.142c-1.611-1.715-3.901-2.786-6.441-2.786c-4.872,0-8.823,3.95-8.823,8.822
	c0,0.693,0.08,1.365,0.228,2.01c-7.329-0.366-13.832-3.879-18.184-9.218c-0.757,1.303-1.194,2.819-1.194,4.436
	c0,3.06,1.558,5.762,3.924,7.342c-1.445-0.047-2.805-0.44-3.993-1.105c-0.001,0.042-0.001,0.079-0.001,0.115
	c0,4.272,3.041,7.838,7.077,8.651c-0.741,0.199-1.521,0.305-2.327,0.305c-0.568,0-1.119-0.051-1.66-0.156
	c1.124,3.508,4.383,6.057,8.243,6.125c-3.019,2.369-6.823,3.775-10.956,3.775c-0.712,0-1.416-0.041-2.105-0.123
	c3.904,2.508,8.541,3.967,13.523,3.967c16.229,0,25.099-13.443,25.099-25.098c0-0.384-0.01-0.765-0.023-1.143
	C50.823,21.987,52.316,20.434,53.5,18.664z"/>
</svg>
