<?xml version="1.0" encoding="UTF-8" standalone="no"?>
<svg
   xmlns:svg="http://www.w3.org/2000/svg"
   xmlns="http://www.w3.org/2000/svg"
   version="1.1"
   id="Capa_1"
   x="0px"
   y="0px"
   viewBox="0 0 29.999999 33.999999"
   xml:space="preserve"
   width="30"
   height="34">
<g
   id="g8"
   transform="matrix(1.1102887,0,0,1.1102887,0,-1.2901561)"
   style="fill:#f2f2f2">
	<path
   style="fill:#f2f2f2"
   d="m 3.674,24.876 c 0,0 -0.024,0.604 0.566,0.604 0.734,0 6.811,-0.008 6.811,-0.008 l 0.01,-5.581 c 0,0 -0.096,-0.92 0.797,-0.92 h 2.826 c 1.056,0 0.991,0.92 0.991,0.92 l -0.012,5.563 c 0,0 5.762,0 6.667,0 0.749,0 0.715,-0.752 0.715,-0.752 V 14.413 L 13.649,6.055 3.674,14.413 c 0,0 0,10.463 0,10.463 z"
   id="path2" />
	<path
   style="fill:#f2f2f2"
   d="m 0,13.635 c 0,0 0.847,1.561 2.694,0 l 11.038,-9.338 10.349,9.28 c 2.138,1.542 2.939,0 2.939,0 L 13.732,1.54 Z"
   id="path4" />
</g>
</svg>